<?xml version="1.0" standalone="no"?>
<!DOCTYPE svg PUBLIC "-//W3C//DTD SVG 20010904//EN"
 "http://www.w3.org/TR/2001/REC-SVG-20010904/DTD/svg10.dtd">
<svg version="1.0" xmlns="http://www.w3.org/2000/svg"
 width="350.000000pt" height="213.000000pt" viewBox="0 0 350.000000 213.000000"
 preserveAspectRatio="xMidYMid meet">

<g transform="translate(0.000000,213.000000) scale(0.100000,-0.100000)"
fill="#000000" stroke="none">
<path d="M1480 2049 c-316 -30 -597 -104 -848 -224 -399 -192 -622 -464 -622
-760 0 -474 571 -872 1400 -977 137 -17 543 -17 680 0 746 94 1286 424 1386
847 113 482 -419 949 -1236 1084 -245 40 -526 51 -760 30z m460 -10 c683 -48
1223 -294 1444 -657 120 -198 120 -436 0 -634 -163 -268 -510 -479 -969 -588
-653 -156 -1421 -66 -1909 224 -234 139 -385 307 -452 501 -39 114 -39 246 0
360 78 228 260 409 566 561 357 178 857 266 1320 233z"/>
<path d="M1993 2002 c9 -10 23 -38 32 -62 8 -25 18 -52 21 -59 3 -10 18 5 44
45 l40 59 -6 -50 c-4 -27 -11 -56 -17 -62 -7 -10 -1 -13 24 -13 22 0 29 3 21
9 -16 9 -6 112 12 123 6 5 2 8 -11 8 -15 0 -32 -15 -54 -46 -33 -49 -38 -48
-59 6 -17 45 -29 60 -48 60 -13 0 -13 -2 1 -18z"/>
<path d="M1528 1982 c-14 -3 -12 -7 9 -30 16 -17 23 -35 20 -49 -4 -19 0 -23
22 -22 14 0 20 3 14 6 -20 7 -15 47 8 77 l20 26 -21 0 c-12 0 -19 -4 -16 -9 7
-11 -3 -41 -14 -41 -5 0 -12 10 -17 23 -5 14 -15 21 -25 19z"/>
<path d="M1696 1971 c-24 -26 -17 -62 17 -81 24 -13 30 -13 55 0 34 19 43 67
16 87 -26 19 -68 16 -88 -6z m82 -33 c3 -33 0 -38 -23 -44 -32 -8 -55 10 -55
46 0 35 8 42 45 38 27 -3 30 -7 33 -40z"/>
<path d="M1826 1982 c8 -5 9 -23 4 -54 -7 -47 -6 -48 19 -47 14 0 20 3 14 6
-7 2 -13 14 -13 25 0 16 5 19 25 16 16 -3 25 -1 25 7 0 8 -9 10 -25 7 -21 -3
-25 0 -25 18 0 18 4 21 25 18 14 -3 25 -1 25 3 0 5 -19 9 -42 9 -24 0 -38 -4
-32 -8z"/>
<path d="M1986 1941 c-4 -27 -12 -51 -19 -54 -6 -2 1 -6 16 -9 19 -4 25 -2 18
5 -5 5 -7 31 -4 58 3 27 3 49 1 49 -3 0 -8 -22 -12 -49z"/>
<path d="M1408 1972 c-10 -2 -18 -8 -18 -13 0 -6 7 -6 19 1 17 9 20 5 26 -30
4 -21 4 -44 0 -50 -4 -6 5 -10 20 -10 24 0 25 1 11 16 -9 8 -16 31 -16 51 0
30 3 35 20 30 11 -3 20 -1 20 4 0 9 -42 9 -82 1z"/>
<path d="M1341 1963 c-18 -4 -21 -7 -10 -13 8 -5 14 -26 14 -53 0 -40 2 -43
23 -39 17 3 20 7 11 13 -8 5 -14 27 -14 53 0 25 0 45 0 45 0 -1 -11 -4 -24 -6z"/>
<path d="M1258 1949 c-28 -16 -21 -39 18 -55 27 -11 34 -19 29 -32 -5 -13 -3
-14 6 -5 16 16 4 41 -26 53 -14 5 -25 14 -25 19 0 17 20 23 36 10 12 -10 13
-9 8 5 -7 18 -21 20 -46 5z"/>
<path d="M2198 1922 c3 -27 -1 -44 -13 -55 -15 -16 -15 -17 7 -17 20 0 23 5
25 41 0 23 7 46 15 50 8 6 9 9 1 9 -6 0 -17 2 -25 5 -10 4 -13 -4 -10 -33z"/>
<path d="M1142 1933 c-19 -4 -21 -7 -12 -18 7 -8 13 -33 13 -55 2 -29 6 -39
15 -35 8 3 18 5 24 5 5 0 2 8 -8 17 -22 22 0 31 24 10 9 -8 34 -15 55 -15 34
0 36 1 20 13 -12 9 -20 10 -24 3 -4 -7 -14 -6 -28 1 -16 9 -20 18 -15 37 4 17
2 29 -7 35 -15 9 -19 9 -57 2z m43 -28 c0 -26 -21 -30 -28 -6 -2 11 -2 22 1
26 11 10 27 -2 27 -20z"/>
<path d="M2260 1920 c-11 -11 -20 -27 -20 -35 0 -21 36 -55 58 -54 14 0 13 2
-4 9 -46 19 -41 75 9 89 32 9 32 9 5 10 -16 1 -37 -8 -48 -19z"/>
<path d="M2346 1915 c4 -8 8 -15 10 -15 2 0 4 7 4 15 0 8 -4 15 -10 15 -5 0
-7 -7 -4 -15z"/>
<path d="M1048 1906 c-31 -9 -35 -13 -22 -21 10 -6 16 -26 17 -51 l2 -41 39
11 c22 6 41 17 44 25 3 9 -4 8 -23 -5 -23 -15 -28 -15 -36 -3 -15 25 -8 35 24
30 4 0 7 7 7 16 0 13 -3 14 -12 5 -19 -19 -38 -14 -38 9 0 17 5 20 25 17 14
-3 25 -2 25 3 0 14 -15 16 -52 5z"/>
<path d="M2383 1879 c0 -23 -6 -45 -13 -49 -8 -5 -7 -9 5 -14 23 -8 25 -8 20
7 -9 23 10 39 38 31 31 -7 35 -28 10 -43 -10 -6 -13 -11 -6 -11 6 0 19 -3 27
-6 11 -4 15 -2 11 8 -3 8 0 34 8 56 14 39 13 42 -3 42 -13 0 -17 -6 -13 -20 6
-21 -5 -24 -43 -14 -15 4 -20 11 -17 25 3 10 10 16 16 12 6 -3 7 -1 3 5 -4 7
-15 12 -24 12 -13 0 -17 -10 -19 -41z"/>
<path d="M969 1883 c-1 -5 0 -26 1 -48 l2 -40 -26 24 c-14 14 -26 30 -26 37 0
7 -8 10 -18 7 -15 -3 -11 -11 23 -47 44 -46 55 -43 55 15 0 19 5 40 12 47 9 9
8 12 -5 12 -9 0 -17 -3 -18 -7z"/>
<path d="M2528 1878 c12 -12 -4 -68 -25 -84 -11 -9 -9 -12 11 -16 14 -3 23 -1
20 4 -7 11 16 81 28 89 6 4 -2 9 -17 11 -17 4 -23 2 -17 -4z"/>
<path d="M835 1840 c-11 -5 -15 -9 -9 -9 18 -1 44 -77 30 -91 -8 -8 -3 -8 17
1 15 7 23 15 18 18 -5 3 -16 23 -24 43 -11 27 -12 38 -4 42 7 2 8 4 2 5 -5 0
-19 -4 -30 -9z"/>
<path d="M1422 1834 c-143 -15 -254 -35 -384 -68 -127 -32 -279 -87 -272 -97
3 -5 -3 -6 -12 -2 -12 4 -15 3 -10 -5 4 -8 2 -10 -7 -6 -19 7 -140 -54 -132
-66 4 -6 -1 -7 -11 -3 -11 4 -15 2 -11 -4 4 -6 -1 -10 -11 -9 -9 0 -16 -5 -14
-12 1 -8 -2 -11 -8 -7 -10 6 -94 -46 -106 -68 -5 -7 0 -6 12 3 19 14 19 14 0
-8 -20 -23 -32 -30 -21 -12 15 24 -14 7 -48 -28 -37 -37 -49 -60 -24 -46 8 5
8 2 -2 -9 -16 -20 -26 -23 -15 -4 5 8 2 7 -10 -2 -9 -8 -15 -20 -12 -27 3 -7
0 -16 -6 -20 -7 -5 -8 -2 -3 6 6 9 4 11 -4 6 -7 -5 -10 -15 -7 -23 3 -8 1 -11
-4 -8 -16 10 -61 -99 -73 -176 -7 -49 -7 -89 0 -138 12 -77 57 -186 73 -176 5
3 8 0 5 -7 -3 -7 5 -24 17 -38 13 -14 19 -19 13 -10 -5 8 3 4 18 -9 28 -25 38
-43 12 -21 -31 26 -13 -8 23 -43 38 -37 60 -49 46 -24 -4 6 5 1 19 -12 33 -30
36 -42 5 -15 l-23 19 19 -23 c11 -12 26 -20 33 -18 7 3 15 0 19 -6 5 -7 2 -8
-7 -3 -12 8 -12 6 0 -8 16 -20 36 -23 25 -4 -4 7 -3 9 2 4 5 -5 9 -14 9 -19 0
-6 6 -13 14 -16 9 -3 11 0 6 8 -5 9 -4 11 4 6 6 -4 9 -12 5 -17 -8 -14 223
-123 346 -163 132 -43 299 -80 460 -102 177 -25 588 -25 755 -1 188 28 433 82
422 94 -2 2 -38 -5 -78 -15 -265 -68 -405 -85 -699 -86 -230 0 -294 4 -510 36
-53 8 -69 13 -55 19 16 6 17 8 3 8 -9 1 -19 7 -21 14 -3 7 -6 4 -6 -6 -1 -12
-7 -17 -18 -15 -19 3 -31 28 -13 28 6 0 8 -4 5 -10 -3 -5 -1 -10 4 -10 14 0
14 16 0 42 -28 53 -34 398 -7 414 5 3 6 8 4 12 -2 4 2 13 10 20 10 9 14 9 14
1 0 -6 6 -9 14 -6 8 3 22 -2 33 -12 11 -10 31 -17 46 -15 16 1 26 -2 24 -9 -3
-18 121 -8 170 13 23 10 44 15 48 12 4 -4 5 0 3 8 -2 8 4 14 12 15 8 0 15 5
16 10 2 21 17 45 25 39 5 -3 6 3 2 12 -4 10 -2 15 3 11 5 -3 10 2 11 11 0 9 6
42 12 72 27 132 -44 274 -154 310 -21 7 -61 10 -90 8 -44 -4 -62 -12 -99 -42
-52 -42 -96 -47 -103 -11 -10 57 -12 181 -3 270 17 177 31 200 129 210 29 2
57 8 63 11 6 4 44 8 84 10 41 2 87 6 102 9 43 10 202 21 204 15 2 -3 40 -3 86
0 45 3 94 2 107 -2 16 -4 25 -2 25 5 0 7 4 6 10 -3 8 -12 10 -12 10 -1 0 9 4
10 13 4 10 -9 84 -17 229 -26 20 -2 40 -6 44 -10 11 -11 52 -8 60 5 4 6 3 8
-4 4 -6 -3 -14 -1 -18 5 -5 9 1 10 22 5 16 -4 34 -7 41 -8 7 -1 10 -5 7 -9 -3
-5 3 -45 12 -89 23 -115 17 -329 -11 -385 -28 -56 -66 -59 -124 -10 -51 42
-74 49 -147 43 -75 -6 -129 -46 -169 -123 -26 -51 -30 -69 -29 -139 0 -92 15
-133 65 -191 41 -46 100 -74 156 -75 54 0 82 11 126 50 29 25 43 31 74 28 36
-3 39 -6 55 -53 22 -65 24 -280 3 -379 -8 -38 -13 -71 -11 -74 2 -2 7 5 9 15
46 159 36 449 -17 492 -26 22 -75 16 -104 -12 -80 -77 -199 -74 -277 7 -22 23
-46 60 -52 81 -18 59 -28 149 -16 142 5 -4 8 7 5 26 -3 25 -1 29 7 17 8 -11 9
-7 4 19 -4 24 -3 32 5 27 8 -5 10 -1 5 11 -6 16 -5 17 13 3 15 -11 16 -11 7 0
-15 16 -17 34 -4 25 10 -6 26 13 26 30 0 6 7 10 15 10 8 1 14 6 13 12 -3 16
71 43 118 43 50 0 97 -20 128 -54 28 -30 81 -36 101 -11 7 8 16 12 21 9 5 -3
6 3 2 12 -4 11 -2 15 4 11 6 -4 11 -1 10 6 -1 38 4 61 11 50 4 -7 7 18 5 55
-2 45 0 60 6 47 6 -14 10 3 13 60 4 90 -4 124 -13 55 l-6 -45 -1 58 c-2 42 1
56 10 51 8 -5 9 4 5 33 -9 55 13 86 50 72 18 -7 30 -6 37 1 13 13 29 13 21 0
-6 -10 6 -16 88 -42 26 -9 47 -12 47 -7 0 5 5 9 11 9 5 0 8 -4 5 -9 -8 -12 43
-33 65 -26 13 5 19 2 17 -7 -2 -8 5 -12 20 -11 13 2 21 -1 17 -7 -4 -6 1 -7
11 -3 12 4 15 3 10 -5 -5 -8 -2 -10 9 -6 10 4 15 2 13 -7 -2 -9 5 -13 20 -12
13 2 21 -1 17 -7 -4 -6 1 -7 11 -3 13 5 15 3 9 -7 -5 -9 -4 -11 3 -6 7 4 12 2
12 -3 0 -6 3 -10 8 -10 20 3 32 -2 26 -13 -4 -6 -3 -8 3 -5 10 6 65 -26 64
-37 -1 -3 0 -5 2 -4 6 7 66 -44 64 -55 -1 -6 5 -12 13 -12 8 0 14 -7 12 -14
-1 -7 2 -10 7 -6 15 9 97 -107 121 -173 50 -132 45 -255 -16 -380 -42 -86
-130 -184 -224 -250 -67 -47 -97 -72 -70 -57 113 60 253 202 304 307 254 521
-457 992 -1489 987 -104 -1 -246 -7 -313 -15z m411 -1 c-46 -2 -120 -2 -165 0
-46 1 -9 3 82 3 91 0 128 -2 83 -3z m-335 -10 c-10 -2 -26 -2 -35 0 -10 3 -2
5 17 5 19 0 27 -2 18 -5z m535 0 c-13 -2 -33 -2 -45 0 -13 2 -3 4 22 4 25 0
35 -2 23 -4z m-640 -10 c-7 -2 -19 -2 -25 0 -7 3 -2 5 12 5 14 0 19 -2 13 -5z
m735 0 c-10 -2 -26 -2 -35 0 -10 3 -2 5 17 5 19 0 27 -2 18 -5z m-805 -10 c-7
-2 -19 -2 -25 0 -7 3 -2 5 12 5 14 0 19 -2 13 -5z m880 0 c-7 -2 -21 -2 -30 0
-10 3 -4 5 12 5 17 0 24 -2 18 -5z m-946 -9 c-3 -3 -12 -4 -19 -1 -8 3 -5 6 6
6 11 1 17 -2 13 -5z m1006 -1 c-7 -2 -19 -2 -25 0 -7 3 -2 5 12 5 14 0 19 -2
13 -5z m-1066 -9 c-3 -3 -12 -4 -19 -1 -8 3 -5 6 6 6 11 1 17 -2 13 -5z m-84
-80 c-20 -85 -24 -318 -5 -382 20 -66 44 -84 101 -79 27 2 65 15 88 30 22 14
45 23 49 19 5 -4 2 1 -5 11 -12 16 -10 17 33 17 84 0 149 -39 189 -115 18 -33
22 -57 22 -140 0 -91 -3 -104 -27 -146 -15 -26 -25 -49 -23 -53 3 -3 2 -4 -1
-1 -4 2 -19 -4 -33 -14 -43 -31 -104 -45 -158 -35 -26 4 -54 8 -60 9 -7 0 -20
9 -30 20 -17 19 -17 19 3 5 11 -8 7 -2 -9 13 -40 39 -93 35 -119 -8 -40 -70
-47 -284 -13 -430 7 -33 12 -61 11 -62 -2 -2 -17 0 -35 3 -19 4 -28 10 -21 14
11 7 -3 17 -32 25 -5 2 -10 4 -13 5 -3 1 -9 4 -15 5 -5 1 -12 4 -15 5 -3 1 -9
4 -15 5 -5 1 -12 4 -15 5 -3 1 -9 4 -15 5 -5 1 -11 3 -12 5 -2 1 -11 3 -22 5
-10 2 -23 8 -29 14 -6 6 -21 11 -32 11 -12 0 -25 3 -29 7 -4 5 -11 8 -14 8 -4
1 -23 9 -42 20 -19 10 -41 18 -47 17 -7 -2 -13 2 -13 7 0 6 -19 20 -42 32 -24
12 -46 26 -49 31 -3 5 -8 9 -10 8 -16 -6 -162 116 -213 179 -6 7 -23 26 -37
42 -15 15 -24 30 -21 33 2 3 -5 28 -17 57 -12 28 -20 57 -17 65 3 7 1 16 -4
19 -5 3 -7 11 -5 18 2 7 6 50 9 97 3 46 10 86 15 88 6 2 11 9 11 15 0 7 11 34
24 61 21 43 25 46 31 28 10 -32 25 -27 20 7 -2 20 4 37 18 52 12 13 21 27 19
31 -1 5 3 8 9 8 5 0 7 5 3 12 -4 7 -3 8 4 4 9 -5 9 -13 1 -29 -9 -19 -7 -18
10 3 11 14 19 31 16 38 -7 19 37 34 51 17 7 -9 15 -10 25 -4 11 7 11 9 -3 9
-20 0 -24 15 -6 26 7 4 8 3 4 -4 -4 -7 -2 -12 3 -12 6 0 11 4 11 9 0 4 12 7
26 5 20 -2 24 0 15 9 -15 15 -14 27 4 27 8 0 15 4 15 10 0 5 16 16 36 25 19 8
33 19 29 25 -3 5 3 11 14 12 12 0 27 1 34 2 6 1 20 10 29 21 10 11 17 17 18
13 0 -10 83 20 91 33 3 6 20 12 37 15 17 3 54 13 83 24 29 10 61 16 72 14 13
-2 17 1 13 11 -3 9 1 15 9 15 19 0 15 22 -5 33 -10 5 -7 6 8 3 12 -2 22 1 22
7 0 6 2 8 5 5 3 -3 -2 -36 -12 -74z m1304 60 c-3 -3 -12 -4 -19 -1 -8 3 -5 6
6 6 11 1 17 -2 13 -5z m63 -14 c20 -6 21 -8 5 -8 -11 0 -29 3 -40 8 -25 11 1
11 35 0z m-93 -42 c-3 -8 -6 -5 -6 6 -1 11 2 17 5 13 3 -3 4 -12 1 -19z m228
2 c28 -10 43 -18 35 -18 -8 0 -37 8 -65 18 -27 10 -43 18 -35 18 8 0 38 -8 65
-18z m-1488 -32 c-3 -8 -6 -5 -6 6 -1 11 2 17 5 13 3 -3 4 -12 1 -19z m1270
-20 c-3 -7 -5 -2 -5 12 0 14 2 19 5 13 2 -7 2 -19 0 -25z m323 12 c8 -5 11
-10 5 -10 -5 0 -17 5 -25 10 -8 5 -10 10 -5 10 6 0 17 -5 25 -10z m-1603 -62
c-3 -7 -5 -2 -5 12 0 14 2 19 5 13 2 -7 2 -19 0 -25z m-607 -82 c0 -2 -8 -10
-17 -17 -16 -13 -17 -12 -4 4 13 16 21 21 21 13z m607 -168 c-3 -7 -5 -2 -5
12 0 14 2 19 5 13 2 -7 2 -19 0 -25z m203 -58 c0 -5 -2 -10 -4 -10 -3 0 -8 5
-11 10 -3 6 -1 10 4 10 6 0 11 -4 11 -10z m-176 -16 c3 -8 2 -12 -4 -9 -6 3
-10 10 -10 16 0 14 7 11 14 -7z m146 13 c0 -2 -12 -14 -27 -28 l-28 -24 24 28
c23 25 31 32 31 24z m-1053 -249 c-2 -13 -4 -3 -4 22 0 25 2 35 4 23 2 -13 2
-33 0 -45z m987 -176 c2 -4 -11 -6 -30 -4 -19 2 -34 6 -34 8 0 8 59 4 64 -4z
m-83 -29 c-12 -20 -14 -14 -5 12 4 9 9 14 11 11 3 -2 0 -13 -6 -23z m-14 -45
c-3 -8 -6 -5 -6 6 -1 11 2 17 5 13 3 -3 4 -12 1 -19z m-10 -65 c-3 -10 -5 -2
-5 17 0 19 2 27 5 18 2 -10 2 -26 0 -35z m-10 -125 c-2 -13 -4 -3 -4 22 0 25
2 35 4 23 2 -13 2 -33 0 -45z m-487 -64 c0 -2 -9 0 -20 6 -11 6 -20 13 -20 16
0 2 9 0 20 -6 11 -6 20 -13 20 -16z m497 -36 c-2 -13 -4 -5 -4 17 -1 22 1 32
4 23 2 -10 2 -28 0 -40z m-367 -23 c14 -8 21 -14 15 -14 -5 0 -21 6 -35 14
-14 8 -20 14 -15 14 6 0 21 -6 35 -14z m377 -42 c-3 -10 -5 -4 -5 12 0 17 2
24 5 18 2 -7 2 -21 0 -30z m-317 17 c8 -5 11 -10 5 -10 -5 0 -17 5 -25 10 -8
5 -10 10 -5 10 6 0 17 -5 25 -10z m327 -62 c-3 -8 -6 -5 -6 6 -1 11 2 17 5 13
3 -3 4 -12 1 -19z m-130 -4 c-3 -3 -12 -4 -19 -1 -8 3 -5 6 6 6 11 1 17 -2 13
-5z m40 -10 c-3 -3 -12 -4 -19 -1 -8 3 -5 6 6 6 11 1 17 -2 13 -5z"/>
<path d="M658 1463 c7 -3 16 -2 19 1 4 3 -2 6 -13 5 -11 0 -14 -3 -6 -6z"/>
<path d="M580 1435 c-31 -10 -48 -11 -57 -4 -7 6 -18 9 -25 6 -8 -4 -7 -6 4
-6 9 -1 20 -6 23 -12 4 -6 0 -9 -11 -7 -10 2 -19 -1 -19 -7 0 -5 -15 -26 -33
-45 -17 -19 -32 -38 -32 -43 0 -4 -5 -5 -12 -1 -6 4 -8 3 -5 -3 4 -6 4 -25 1
-43 -4 -19 -10 -27 -14 -20 -12 20 1 -90 21 -178 10 -46 19 -93 19 -105 0 -39
-21 -98 -32 -91 -5 4 -4 -4 3 -17 7 -13 12 -28 11 -32 -1 -5 2 -6 8 -2 13 8
52 -19 42 -30 -4 -5 -2 -6 4 -2 5 3 50 -10 100 -28 103 -40 150 -44 159 -16 8
26 27 33 110 40 75 6 71 3 91 79 2 7 4 16 6 20 1 4 8 13 15 20 7 7 13 21 13
31 0 9 13 21 30 28 l31 11 -28 56 -27 55 17 54 c29 92 16 160 -40 220 -15 15
-23 27 -19 27 5 0 3 7 -4 15 -7 8 -16 13 -20 10 -11 -7 -41 5 -36 14 11 18
-240 23 -294 6z m149 -15 c16 0 21 -4 18 -15 -4 -8 0 -27 8 -42 8 -15 15 -21
15 -12 0 8 -4 19 -10 25 -5 5 -5 15 -1 23 11 17 51 5 51 -16 0 -13 -2 -14 -17
-2 -16 13 -17 12 -4 -4 8 -10 18 -35 22 -55 6 -31 7 -33 8 -9 1 33 18 35 31 5
5 -13 9 -18 9 -11 1 7 7 10 15 7 8 -3 14 -18 13 -36 -2 -23 -9 -33 -34 -43
-24 -10 -33 -11 -37 -2 -3 9 -5 9 -5 0 -1 -20 39 -37 53 -23 8 8 7 10 -6 5
-30 -12 -20 3 13 19 28 14 30 14 25 -1 -4 -9 6 -4 21 13 15 16 26 32 25 37 -4
13 11 7 24 -10 17 -22 17 -59 1 -97 -10 -24 -20 -30 -52 -32 -22 -2 -60 -6
-85 -8 -25 -2 -39 -2 -32 1 7 3 -2 14 -23 29 -46 31 -56 31 -21 0 l28 -23 -23
-6 c-28 -8 -135 43 -131 62 1 7 -2 10 -8 6 -16 -10 12 -44 53 -62 20 -9 37
-20 37 -25 0 -11 -14 -10 -26 1 -5 5 -38 21 -74 36 -35 15 -70 34 -78 44 -7 9
-11 10 -7 4 7 -15 -13 -17 -34 -4 -12 8 -12 12 -2 25 19 23 30 20 62 -14 16
-16 29 -27 29 -23 0 4 -11 18 -24 32 -30 32 -46 101 -23 101 8 0 17 -6 19 -12
3 -7 7 -3 10 8 4 18 2 20 -20 16 -22 -4 -24 -2 -18 14 5 10 9 24 10 31 3 18
14 26 38 30 18 3 19 1 7 -14 -8 -10 -21 -23 -29 -30 -13 -10 -11 -11 8 -6 12
3 22 10 22 16 0 16 31 47 48 47 12 0 12 -4 -3 -20 -20 -22 -10 -44 27 -56 17
-5 19 -12 15 -40 -6 -38 8 -53 73 -75 59 -20 92 -48 85 -72 -6 -21 -5 -21 6
-2 11 17 8 22 -17 43 -16 13 -54 33 -84 46 -53 21 -55 23 -52 56 2 19 11 42
21 50 19 17 14 52 -11 65 -10 6 -11 5 0 -6 16 -17 15 -29 -2 -29 -19 0 -39 27
-31 40 4 7 17 9 29 6 11 -3 32 -6 45 -6z m-69 -35 c7 -8 19 -15 27 -15 13 0
13 -3 3 -15 -11 -13 -15 -13 -41 1 -29 14 -35 25 -22 37 10 11 19 8 33 -8z
m197 -17 c-1 -6 8 -12 21 -13 31 -2 75 -45 62 -60 -5 -7 -8 -14 -5 -16 2 -3
-5 -10 -15 -17 -17 -10 -20 -10 -20 3 0 8 5 15 10 15 6 0 10 5 10 12 0 6 -3 9
-6 6 -3 -3 -17 5 -31 18 -15 14 -36 27 -49 30 -15 4 -20 11 -17 24 5 19 44 17
40 -2z m-337 -3 c0 -8 -7 -15 -16 -15 -14 0 -14 3 -4 15 7 8 14 15 16 15 2 0
4 -7 4 -15z m-31 -42 c-13 -15 -12 -15 6 -6 18 10 20 8 22 -28 1 -26 -3 -39
-12 -39 -7 0 -16 -7 -19 -16 -3 -8 -10 -12 -16 -9 -6 3 -7 0 -4 -9 3 -9 -1
-22 -9 -30 -13 -14 -15 -13 -20 4 -3 11 -1 18 4 15 5 -4 6 7 3 23 -6 30 29
112 48 112 6 0 4 -7 -3 -17z m5 -165 c-5 -8 -2 -9 11 -4 10 3 27 3 39 0 21 -7
21 -7 1 -15 -19 -8 -19 -8 3 -15 12 -3 22 -10 22 -15 0 -5 3 -8 8 -6 4 1 8 -2
10 -8 1 -5 -9 -10 -23 -10 -14 -1 -25 2 -25 6 0 3 -12 5 -26 3 -18 -2 -33 5
-45 19 -24 28 -23 32 4 45 29 14 29 14 21 0z m171 -42 c30 -13 38 -13 65 1 17
8 34 12 37 9 4 -3 1 -6 -5 -6 -6 0 -9 -7 -6 -15 9 -21 -50 -19 -101 5 -47 22
-40 26 10 6z m-115 -54 c-13 -2 -29 3 -37 11 -13 13 -10 13 22 3 30 -9 32 -12
15 -14z m55 -2 c-3 -5 -10 -10 -16 -10 -5 0 -9 5 -9 10 0 6 7 10 16 10 8 0 12
-4 9 -10z"/>
<path d="M580 1304 c0 -46 12 -60 77 -89 23 -10 40 -22 37 -26 -3 -5 -1 -9 5
-9 5 0 13 5 16 10 3 6 2 10 -4 10 -5 0 -17 8 -27 17 -9 10 -28 19 -42 21 -31
4 -52 25 -52 51 0 16 7 21 28 22 27 2 27 2 2 6 -14 3 -28 10 -32 17 -4 6 -8
-7 -8 -30z"/>
<path d="M730 1311 c0 -11 4 -22 9 -25 4 -3 6 6 3 19 -5 30 -12 33 -12 6z"/>
<path d="M761 1320 c0 -8 4 -24 9 -35 5 -13 9 -14 9 -5 0 8 -4 24 -9 35 -5 13
-9 14 -9 5z"/>
<path d="M942 1225 c-12 -19 -37 -41 -55 -49 -25 -11 -27 -14 -9 -13 24 1 96
69 91 86 -2 5 -14 -5 -27 -24z"/>
<path d="M470 1286 c0 -2 8 -10 18 -17 15 -13 16 -12 3 4 -13 16 -21 21 -21
13z"/>
<path d="M455 1259 c-4 -6 -5 -12 -2 -15 2 -3 7 2 10 11 7 17 1 20 -8 4z"/>
<path d="M420 1340 c-9 -6 -10 -10 -3 -10 6 0 15 5 18 10 8 12 4 12 -15 0z"/>
<path d="M2330 1840 c-9 -6 -10 -10 -3 -10 6 0 15 5 18 10 8 12 4 12 -15 0z"/>
<path d="M2582 1838 c-16 -16 -15 -63 2 -77 8 -7 27 -16 44 -20 26 -8 31 -6
40 14 9 19 8 24 -7 28 -14 3 -17 0 -14 -14 4 -14 0 -19 -14 -19 -25 0 -43 19
-43 45 0 43 47 60 82 28 10 -9 18 -11 18 -5 0 28 -84 44 -108 20z"/>
<path d="M775 1820 c-14 -6 -15 -9 -5 -9 9 -1 21 -15 27 -32 9 -24 9 -30 0
-26 -7 3 -31 13 -55 22 -35 14 -46 15 -55 5 -9 -10 -9 -11 0 -6 17 10 56 -67
41 -82 -8 -8 -5 -9 11 -5 12 3 24 10 28 16 3 6 1 7 -5 3 -9 -5 -42 40 -42 58
0 3 25 -6 55 -19 30 -14 55 -23 55 -21 0 3 -9 25 -19 49 -11 25 -17 48 -14 51
8 8 3 7 -22 -4z"/>
<path d="M620 1785 c-17 -10 -20 -14 -9 -15 19 0 45 -36 54 -73 5 -20 1 -29
-18 -41 -13 -9 -32 -14 -41 -10 -20 8 -59 81 -51 94 9 14 -7 12 -28 -4 -10 -8
-14 -16 -9 -17 5 -2 21 -23 36 -46 21 -35 32 -43 56 -43 32 0 70 30 70 55 0 9
-9 34 -20 56 -12 22 -18 44 -15 49 8 13 5 12 -25 -5z"/>
<path d="M2734 1769 c-16 -17 -38 -34 -48 -38 -18 -7 -18 -8 3 -14 13 -3 20
-3 17 0 -3 4 -1 12 5 19 8 10 16 11 30 3 21 -11 25 -35 7 -41 -7 -3 -2 -7 10
-10 21 -6 22 -3 22 53 0 32 -4 59 -8 59 -5 0 -21 -14 -38 -31z m26 -9 c0 -13
-5 -18 -15 -14 -12 5 -13 10 -4 20 15 19 19 18 19 -6z"/>
<path d="M2843 1763 c10 -17 -24 -83 -42 -83 -14 0 -14 -1 -1 -10 17 -11 37
-14 27 -4 -3 4 1 21 10 38 l16 31 17 -60 16 -59 24 41 c13 23 30 43 39 45 9 2
5 8 -14 16 -24 11 -27 11 -17 0 8 -11 7 -21 -7 -42 l-19 -28 -12 51 c-6 27
-19 56 -28 63 -10 8 -13 9 -9 1z"/>
<path d="M1400 1623 c0 -66 5 -117 13 -132 41 -81 190 -96 248 -25 9 12 3 10
-17 -5 -20 -15 -50 -25 -80 -27 -43 -3 -45 -2 -13 4 47 11 86 40 99 76 5 16
10 63 10 105 0 42 5 83 11 91 7 11 9 -20 7 -102 -2 -64 0 -111 4 -105 4 7 8
60 8 120 l0 107 -50 0 -50 0 0 -103 c0 -108 -7 -127 -45 -127 -38 0 -45 19
-45 127 l0 103 -50 0 -50 0 0 -107z m102 -122 c7 -9 2 -6 -11 5 -21 19 -23 31
-23 107 1 126 16 132 20 8 1 -59 8 -112 14 -120z"/>
<path d="M1760 1580 l0 -150 45 0 45 0 1 73 c1 39 4 82 7 94 l7 22 11 -23 c7
-14 8 -30 3 -38 -7 -10 -9 -8 -9 6 0 11 -3 17 -6 13 -3 -3 -3 -21 1 -39 7 -29
9 -31 16 -13 7 15 8 12 4 -11 -3 -17 -1 -43 5 -58 9 -24 15 -27 47 -24 37 3
37 3 55 73 10 39 17 77 15 85 -1 8 -11 -22 -21 -67 -16 -68 -23 -83 -38 -83
-17 0 -17 2 -4 28 8 15 18 46 21 67 10 52 36 99 47 82 4 -6 8 -51 8 -99 l0
-88 45 0 46 0 -3 148 -3 147 -64 0 -65 0 -21 -80 c-20 -72 -22 -77 -29 -50 -4
17 -14 54 -22 83 l-15 52 -65 0 -64 0 0 -150z m340 -6 c0 -129 -1 -134 -21
-134 -13 0 -18 4 -13 12 4 6 8 59 9 117 3 144 4 153 15 146 6 -4 10 -62 10
-141z m-191 49 c11 -40 18 -73 15 -73 -9 0 -42 83 -47 117 -4 28 4 57 10 36 1
-4 11 -41 22 -80z m131 -95 c-7 -51 -8 -50 -8 27 0 56 2 72 8 53 4 -15 4 -51
0 -80z m-198 0 c-4 -78 -6 -88 -23 -88 -16 0 -17 4 -9 26 6 14 10 52 10 85 0
38 4 58 10 54 6 -3 10 -1 10 6 0 7 1 10 3 8 2 -2 1 -43 -1 -91z m115 50 c-3
-8 -6 -5 -6 6 -1 11 2 17 5 13 3 -3 4 -12 1 -19z"/>
<path d="M2698 1407 c-103 -39 -172 -101 -217 -197 -22 -46 -26 -69 -26 -140
0 -76 4 -93 33 -152 36 -74 95 -132 170 -169 39 -20 63 -24 142 -24 82 0 103
4 151 26 75 35 134 96 172 177 26 55 31 78 31 142 0 64 -5 87 -31 142 -61 130
-167 200 -308 205 -49 2 -94 -2 -117 -10z m247 -32 c71 -34 131 -94 163 -163
23 -49 27 -70 27 -147 0 -78 -4 -96 -27 -140 -29 -53 -80 -121 -59 -78 17 33
14 80 -5 87 -9 4 -27 0 -40 -9 -48 -31 -93 -10 -95 45 -1 44 4 67 19 82 7 7
12 19 13 28 0 8 13 25 29 38 25 19 32 21 49 10 17 -11 24 -9 46 12 33 31 32
40 -5 37 -16 -1 -30 -6 -30 -12 0 -5 -5 -4 -12 3 -21 21 -39 13 -54 -23 -17
-40 -31 -45 -43 -12 -7 17 -4 24 12 30 19 7 19 8 2 27 -10 11 -23 20 -29 20
-7 0 -12 9 -12 20 0 24 9 25 26 5 9 -11 16 -13 23 -6 7 7 6 16 -4 28 -8 10
-20 30 -26 45 -10 23 -9 27 10 32 21 5 21 5 1 27 -10 12 -28 25 -39 30 -11 4
-14 8 -7 8 7 1 37 -10 67 -24z m-261 2 c-5 -14 1 -15 101 -21 26 -1 30 -6 33
-32 2 -24 -2 -33 -23 -42 -14 -6 -25 -16 -25 -22 0 -6 -5 -8 -10 -5 -6 3 -8
26 -6 51 4 33 1 44 -10 44 -13 0 -19 -13 -15 -34 1 -5 -6 -17 -15 -27 -13 -15
-15 -30 -11 -69 3 -28 3 -49 -1 -46 -5 3 -27 0 -51 -5 -41 -9 -91 -47 -104
-79 -4 -11 -6 -9 -6 5 -1 30 -21 47 -38 34 -14 -13 -18 -49 -5 -49 5 0 13 -21
18 -47 8 -41 13 -49 34 -51 14 -2 39 -16 55 -31 62 -56 125 -102 155 -112 16
-6 30 -14 30 -17 -1 -16 -38 -50 -66 -61 -28 -11 -37 -10 -73 8 -22 12 -46 31
-52 44 -7 12 -25 37 -41 56 -23 26 -28 39 -23 63 5 19 2 35 -7 46 -24 29 -48
105 -48 155 0 83 62 175 154 228 59 34 57 33 50 16z"/>
<path d="M1376 658 c-3 -29 -4 -98 -2 -153 l3 -100 59 -3 c97 -5 144 6 181 43
23 23 33 42 32 62 -1 28 -1 28 -9 -5 -16 -67 -66 -93 -175 -90 l-60 1 65 6
c115 11 163 62 150 161 -3 27 -3 55 2 63 19 36 -59 67 -168 67 l-72 0 -6 -52z
m117 -15 l-33 -4 0 -85 c0 -80 1 -84 23 -85 18 -1 19 -2 3 -6 -10 -3 -23 0
-28 5 -15 15 -21 123 -9 155 9 22 16 27 43 25 l33 -1 -32 -4z m56 -47 c9 -20
11 -40 5 -70 -8 -38 -11 -41 -46 -44 l-38 -3 0 76 0 76 32 -3 c25 -2 36 -10
47 -32z"/>
<path d="M1700 555 l0 -155 83 0 c102 1 157 13 180 41 25 31 22 75 -7 104 -14
14 -20 27 -15 31 19 11 29 53 19 79 -15 39 -65 55 -170 55 l-90 0 0 -155z
m250 100 c11 -29 -1 -69 -24 -78 -12 -5 -13 -2 -6 19 5 13 11 38 12 54 3 36 6
37 18 5z m-127 -2 c-30 -4 -33 -7 -33 -38 0 -27 4 -34 23 -38 l22 -4 -23 -2
c-30 -1 -49 37 -33 68 9 15 20 21 44 19 l32 -1 -32 -4z m43 -30 c-1 -24 -6
-28 -33 -31 -29 -3 -33 0 -33 22 0 20 6 25 33 29 17 2 32 5 33 5 1 1 1 -10 0
-25z m-43 -80 c-31 -4 -33 -7 -34 -46 0 -38 -1 -40 -11 -19 -18 37 4 72 44 70
l33 -1 -32 -4z m141 -25 c12 -35 0 -75 -27 -89 -12 -7 -65 -13 -117 -14 l-95
-3 81 7 c90 7 130 26 140 68 4 15 2 34 -5 46 -10 15 -10 18 1 15 7 -3 17 -16
22 -30z m-100 6 c9 -3 16 -14 16 -24 0 -20 -19 -30 -56 -30 -20 0 -24 5 -24
30 0 25 4 30 24 30 13 0 31 -3 40 -6z"/>
<path d="M2024 697 c-2 -7 -3 -76 -2 -152 l3 -140 48 -3 47 -3 0 155 0 156
-45 0 c-28 0 -48 -5 -51 -13z m86 -142 l0 -145 -26 0 c-23 0 -24 1 -10 16 13
12 16 39 16 122 0 97 6 152 16 152 2 0 4 -65 4 -145z"/>
<path d="M1636 615 c8 -37 14 -45 14 -19 0 10 -5 26 -10 34 -8 11 -9 7 -4 -15z"/>
<path d="M1651 554 c0 -11 3 -14 6 -6 3 7 2 16 -1 19 -3 4 -6 -2 -5 -13z"/>
<path d="M2820 510 c-41 -21 -72 -39 -67 -40 10 0 147 69 147 75 0 7 3 8 -80
-35z"/>
<path d="M2845 501 c-3 -5 -1 -12 4 -15 5 -3 23 -31 40 -61 32 -57 37 -58 74
-27 20 17 22 53 5 70 -15 15 -51 15 -66 0 -8 -8 -14 -5 -23 15 -13 28 -24 34
-34 18z m113 -79 c-4 -35 -25 -34 -46 1 -15 24 -15 29 -3 37 24 15 53 -7 49
-38z"/>
<path d="M2640 434 c-47 -18 -80 -33 -73 -33 14 -1 173 59 173 65 0 7 -12 3
-100 -32z"/>
<path d="M718 448 c12 -16 -32 -123 -48 -113 -5 3 -10 3 -10 0 0 -11 69 -35
100 -35 66 0 96 81 43 117 -28 19 -78 43 -90 43 -3 0 -1 -6 5 -12z m70 -34
c43 -30 16 -104 -39 -104 -39 0 -45 19 -20 74 22 51 26 53 59 30z"/>
<path d="M2800 415 c-6 -8 -10 -20 -7 -27 4 -8 8 -5 12 10 8 24 20 28 30 11 4
-5 0 -18 -9 -28 -33 -36 -12 -60 34 -39 28 12 40 28 21 28 -5 0 -14 14 -21 30
-13 32 -40 39 -60 15z m50 -59 c-15 -15 -33 4 -19 20 10 12 14 12 20 2 5 -7 4
-17 -1 -22z"/>
<path d="M2666 411 c-15 -6 -16 -9 -5 -13 17 -7 53 -103 44 -117 -3 -6 13 -2
37 8 32 13 43 24 45 42 1 19 1 20 -4 4 -6 -21 -21 -35 -39 -35 -14 0 -56 98
-48 111 6 11 -4 11 -30 0z"/>
<path d="M870 380 c0 -5 7 -10 16 -10 8 0 12 5 9 10 -3 6 -10 10 -16 10 -5 0
-9 -4 -9 -10z"/>
<path d="M854 341 c8 -13 -14 -71 -27 -72 -7 0 -3 -4 8 -9 29 -12 30 -12 31
13 0 12 4 34 8 50 7 22 5 27 -9 27 -9 0 -14 -4 -11 -9z"/>
<path d="M914 321 c8 -13 -14 -71 -27 -72 -7 0 -3 -4 8 -9 30 -13 30 -13 31
21 1 34 18 51 42 41 10 -4 13 -1 8 7 -5 7 -14 10 -22 7 -8 -3 -14 -1 -14 4 0
6 -7 10 -16 10 -8 0 -13 -4 -10 -9z"/>
<path d="M2552 318 c-17 -17 -15 -53 4 -72 21 -22 37 -20 60 5 19 22 19 22 -2
9 -22 -14 -54 -8 -54 10 0 6 12 15 26 20 14 6 24 16 22 23 -6 17 -41 20 -56 5z
m38 -8 c0 -5 -2 -10 -4 -10 -2 0 -12 -3 -20 -6 -12 -5 -15 -2 -10 10 7 17 34
22 34 6z"/>
<path d="M2295 310 c-12 -19 -24 -70 -15 -65 10 6 23 -62 14 -77 -5 -8 -2 -9
10 -5 10 4 22 7 28 7 5 0 2 7 -6 16 -18 17 -22 64 -6 64 6 0 10 4 10 10 0 5
-7 7 -15 4 -11 -5 -15 1 -15 19 0 19 6 27 23 30 22 4 22 4 0 6 -12 0 -25 -4
-28 -9z"/>
<path d="M2467 292 c-18 -20 -22 -49 -8 -70 11 -18 63 -11 69 8 4 12 3 13 -10
2 -19 -15 -45 -6 -53 19 -9 26 2 39 31 39 14 0 22 4 19 10 -10 15 -30 12 -48
-8z"/>
<path d="M987 282 c-32 -35 -14 -73 32 -71 21 1 22 2 6 6 -11 3 -23 10 -27 17
-16 24 -7 32 29 28 31 -4 35 -2 30 13 -4 9 -7 19 -7 21 0 12 -49 1 -63 -14z
m53 -2 c0 -5 -9 -10 -20 -10 -11 0 -20 5 -20 10 0 6 9 10 20 10 11 0 20 -4 20
-10z"/>
<path d="M1189 273 c-8 -10 -14 -38 -14 -63 0 -36 4 -45 20 -48 17 -4 18 -2 6
11 -19 23 -5 80 17 73 15 -6 15 -5 1 6 -9 7 -14 19 -12 26 6 17 -1 15 -18 -5z"/>
<path d="M1307 279 c13 -13 -2 -110 -19 -120 -8 -5 -3 -10 14 -14 67 -17 119
16 85 53 -16 17 -16 20 -2 25 18 8 20 31 3 44 -18 14 -94 25 -81 12z m68 -34
c0 -13 -8 -21 -22 -23 -17 -3 -23 2 -23 16 0 10 3 22 7 26 13 13 38 1 38 -19z
m-6 -49 c17 -20 3 -46 -25 -46 -24 0 -30 14 -18 44 8 20 28 21 43 2z"/>
<path d="M1087 262 c-20 -22 -22 -53 -5 -70 15 -15 45 -15 54 0 4 7 3 8 -5 4
-17 -11 -41 12 -41 39 0 28 27 40 48 23 13 -11 14 -10 10 2 -7 22 -42 24 -61
2z"/>
<path d="M2355 260 c-10 -11 -15 -20 -10 -20 4 0 14 8 21 18 10 13 15 14 25 5
10 -10 7 -17 -14 -33 -37 -30 -26 -54 22 -45 41 8 50 13 36 23 -6 4 -15 20
-20 37 -13 37 -35 42 -60 15z m51 -41 c10 -17 -13 -36 -27 -22 -12 12 -4 33
11 33 5 0 12 -5 16 -11z"/>
<path d="M1854 202 c7 -39 6 -59 -2 -73 -11 -17 -9 -19 20 -19 18 0 28 4 22 8
-15 10 -25 117 -12 130 7 7 2 10 -14 9 -23 -2 -23 -3 -14 -55z"/>
<path d="M1615 240 c4 -6 11 -8 16 -5 14 9 11 15 -7 15 -8 0 -12 -5 -9 -10z"/>
<path d="M2040 236 c0 -8 -6 -17 -12 -19 -10 -4 -10 -6 0 -6 6 -1 12 -12 12
-25 0 -39 11 -56 34 -56 19 1 19 2 4 11 -19 11 -25 69 -8 69 6 0 10 5 10 11 0
5 -4 7 -10 4 -5 -3 -10 1 -10 9 0 9 -4 16 -10 16 -5 0 -10 -6 -10 -14z"/>
<path d="M2202 243 c-8 -3 -10 -9 -3 -16 12 -15 17 -59 9 -73 -5 -7 4 -9 24
-6 25 4 28 6 14 14 -9 5 -16 21 -16 36 0 33 -11 50 -28 45z"/>
<path d="M2235 240 c-3 -5 1 -10 9 -10 9 0 16 5 16 10 0 6 -4 10 -9 10 -6 0
-13 -4 -16 -10z"/>
<path d="M2116 221 c-22 -24 -17 -59 10 -77 17 -12 23 -12 40 1 16 13 16 14 1
9 -17 -6 -47 11 -47 27 0 5 8 9 18 9 9 0 24 5 32 10 13 9 12 12 -4 25 -25 19
-29 19 -50 -4z m42 -9 c2 -7 -6 -12 -17 -12 -21 0 -27 11 -14 24 9 9 26 2 31
-12z"/>
<path d="M1428 184 c3 -22 0 -39 -8 -44 -8 -5 -4 -9 12 -12 22 -4 23 -2 20 29
-4 28 -1 35 17 40 11 3 21 9 21 14 0 13 -14 11 -28 -3 -9 -9 -12 -9 -12 0 0 7
-6 12 -13 12 -9 0 -12 -11 -9 -36z"/>
<path d="M1545 209 c5 -7 8 -30 6 -50 -2 -41 7 -53 29 -38 10 5 10 9 3 9 -7 0
-13 18 -15 42 -2 24 -9 43 -17 46 -9 3 -11 0 -6 -9z"/>
<path d="M1961 211 c-7 -5 -22 -6 -32 -4 -17 5 -18 2 -7 -27 8 -23 8 -38 0
-50 -9 -14 -7 -16 13 -12 21 4 22 7 13 34 -12 34 1 55 27 44 13 -5 16 -15 13
-41 -3 -28 0 -35 13 -35 14 0 15 6 9 38 -11 60 -21 71 -49 53z"/>
<path d="M1511 201 c-8 -5 -9 -11 -3 -15 5 -3 12 1 16 9 6 17 6 18 -13 6z"/>
<path d="M1605 162 c0 -44 2 -48 25 -49 14 -1 19 1 13 4 -8 3 -13 23 -13 49 0
29 -4 44 -12 44 -9 0 -13 -16 -13 -48z"/>
<path d="M1679 205 c0 0 -2 -16 -3 -35 -1 -19 -5 -41 -9 -47 -6 -9 0 -13 20
-12 15 0 22 3 16 6 -16 6 -17 55 -2 70 6 6 18 9 25 6 18 -6 19 -69 2 -76 -7
-3 -2 -6 12 -6 24 -1 26 2 22 37 -6 48 -17 62 -53 59 -16 -1 -29 -2 -30 -2z"/>
<path d="M1511 161 c-18 -11 -7 -41 15 -41 14 0 14 2 3 16 -10 13 -10 17 2 25
8 5 10 9 4 9 -5 0 -16 -4 -24 -9z"/>
</g>
</svg>
