<svg version="1.1" id="Layer_1" xmlns="http://www.w3.org/2000/svg" xmlns:xlink="http://www.w3.org/1999/xlink" x="0px" y="0px"
	 width="100%" viewBox="0 0 200 200" enable-background="new 0 0 200 200" xml:space="preserve">
<path fill="#FDFDFD" opacity="1.000000" stroke="none" 
	d="
M122.000000,201.000000 
	C81.358452,201.000000 41.216900,201.000000 1.037675,201.000000 
	C1.037675,134.400162 1.037675,67.800285 1.037675,1.100206 
	C67.558044,1.100206 134.116287,1.100206 200.837265,1.100206 
	C200.837265,67.666344 200.837265,134.333145 200.837265,201.000000 
	C174.800568,201.000000 148.650284,201.000000 122.000000,201.000000 
M131.056229,70.042053 
	C131.056229,70.042053 131.114136,70.102928 131.068588,69.153755 
	C131.069092,51.658848 130.996323,34.163414 131.123184,16.669422 
	C131.153717,12.457929 129.693710,10.646667 125.321579,10.656807 
	C87.665840,10.744140 50.009727,10.744081 12.354001,10.653814 
	C8.296754,10.644089 6.812053,12.009619 6.819714,16.181791 
	C6.921910,71.832420 6.915202,127.483330 6.830905,183.134018 
	C6.824831,187.143738 8.111765,188.876846 12.267670,188.872314 
	C70.584320,188.808777 128.901077,188.811646 187.217758,188.866013 
	C191.299011,188.869812 192.865021,187.112488 192.859375,183.145798 
	C192.808075,147.156128 192.806473,111.166306 192.862274,75.176651 
	C192.868195,71.351135 191.317841,69.820847 187.475143,69.846497 
	C168.648941,69.972153 149.821777,69.952744 131.056229,70.042053 
z"/>
<path fill="#252525" opacity="1.000000" stroke="none" 
	d="
M130.994949,69.984604 
	C149.821777,69.952744 168.648941,69.972153 187.475143,69.846497 
	C191.317841,69.820847 192.868195,71.351135 192.862274,75.176651 
	C192.806473,111.166306 192.808075,147.156128 192.859375,183.145798 
	C192.865021,187.112488 191.299011,188.869812 187.217758,188.866013 
	C128.901077,188.811646 70.584320,188.808777 12.267670,188.872314 
	C8.111765,188.876846 6.824831,187.143738 6.830905,183.134018 
	C6.915202,127.483330 6.921910,71.832420 6.819714,16.181791 
	C6.812053,12.009619 8.296754,10.644089 12.354001,10.653814 
	C50.009727,10.744081 87.665840,10.744140 125.321579,10.656807 
	C129.693710,10.646667 131.153717,12.457929 131.123184,16.669422 
	C130.996323,34.163414 131.069092,51.658848 130.618835,69.531082 
	C111.671448,69.900475 93.172096,70.025330 74.677353,69.789497 
	C70.160904,69.731903 68.926208,71.333481 69.040138,75.578415 
	C69.259056,83.735458 69.040413,91.904228 69.033745,100.042023 
	C69.064224,100.015915 69.046349,99.937653 68.578201,99.998260 
	C59.955517,100.063934 51.794342,99.899635 43.652096,100.218529 
	C42.045055,100.281471 39.201984,102.146706 39.151516,103.279770 
	C38.769974,111.845749 38.943108,120.436447 38.943108,129.132370 
	C49.416306,129.132370 59.225384,129.132370 69.029236,129.396332 
	C69.043427,129.835205 69.062828,130.010132 69.142044,130.638031 
	C69.201866,139.353378 69.201866,147.615738 69.201866,156.518158 
	C77.466133,156.518158 85.376129,156.442276 93.283638,156.549744 
	C97.322014,156.604614 98.922821,154.791946 98.882362,150.826492 
	C98.811424,143.872208 98.988556,136.915421 99.026077,129.949829 
	C98.990379,129.939987 98.944748,129.998306 99.412003,129.925293 
	C108.183586,129.845840 116.489784,129.732361 124.791496,129.876816 
	C129.136139,129.952408 131.171021,128.416672 131.129044,123.793892 
	C130.966171,105.858536 131.021103,87.921204 130.994949,69.984604 
z"/>
<path fill="#FEFEFE" opacity="1.000000" stroke="none" 
	d="
M131.025589,70.013329 
	C131.021103,87.921204 130.966171,105.858536 131.129044,123.793892 
	C131.171021,128.416672 129.136139,129.952408 124.791496,129.876816 
	C116.489784,129.732361 108.183586,129.845840 99.376778,129.460602 
	C98.867348,121.430214 98.686180,113.786156 98.919838,106.154800 
	C99.056358,101.696098 97.562851,99.824471 92.913483,99.980354 
	C84.951385,100.247307 76.974144,100.062973 69.003265,100.068138 
	C69.040413,91.904228 69.259056,83.735458 69.040138,75.578415 
	C68.926208,71.333481 70.160904,69.731903 74.677353,69.789497 
	C93.172096,70.025330 111.671448,69.900475 130.641617,70.005661 
	C131.114136,70.102928 131.056229,70.042053 131.025589,70.013329 
z"/>
<path fill="#2C2C2C" opacity="1.000000" stroke="none" 
	d="
M69.033745,100.042023 
	C76.974144,100.062973 84.951385,100.247307 92.913483,99.980354 
	C97.562851,99.824471 99.056358,101.696098 98.919838,106.154800 
	C98.686180,113.786156 98.867348,121.430214 98.909531,129.533630 
	C98.944748,129.998306 98.990379,129.939987 98.555298,129.903900 
	C88.440887,129.973541 78.761551,130.079300 69.082222,130.185059 
	C69.062828,130.010132 69.043427,129.835205 69.056595,128.919617 
	C69.074898,118.765198 69.060623,109.351425 69.046349,99.937653 
	C69.046349,99.937653 69.064224,100.015915 69.033745,100.042023 
z"/>
<path fill="#FEFEFE" opacity="1.000000" stroke="none" 
	d="
M68.578201,99.998260 
	C69.060623,109.351425 69.074898,118.765198 69.061813,128.655670 
	C59.225384,129.132370 49.416306,129.132370 38.943108,129.132370 
	C38.943108,120.436447 38.769974,111.845749 39.151516,103.279770 
	C39.201984,102.146706 42.045055,100.281471 43.652096,100.218529 
	C51.794342,99.899635 59.955517,100.063934 68.578201,99.998260 
z"/>
<path fill="#FBFBFB" opacity="1.000000" stroke="none" 
	d="
M69.142044,130.638031 
	C78.761551,130.079300 88.440887,129.973541 98.590988,129.913727 
	C98.988556,136.915421 98.811424,143.872208 98.882362,150.826492 
	C98.922821,154.791946 97.322014,156.604614 93.283638,156.549744 
	C85.376129,156.442276 77.466133,156.518158 69.201866,156.518158 
	C69.201866,147.615738 69.201866,139.353378 69.142044,130.638031 
z"/>
</svg>