<svg version="1.1" id="Layer_1" xmlns="http://www.w3.org/2000/svg" xmlns:xlink="http://www.w3.org/1999/xlink" x="0px" y="0px"
	 width="100%" viewBox="0 0 200 200" enable-background="new 0 0 200 200" xml:space="preserve">
<path fill="#010102" opacity="1.000000" stroke="none" 
	d="
M141.000000,201.000000 
	C94.000000,201.000000 47.500004,201.000000 1.000006,201.000000 
	C1.000004,134.333344 1.000004,67.666679 1.000002,1.000015 
	C67.666656,1.000010 134.333313,1.000010 200.999969,1.000005 
	C200.999985,67.666649 200.999985,134.333298 201.000000,200.999969 
	C181.166672,201.000000 161.333328,201.000000 141.000000,201.000000 
M67.826096,135.985123 
	C78.565880,126.640450 89.305664,117.295769 100.727631,108.076340 
	C114.242523,117.002022 127.757408,125.927704 142.478806,135.650192 
	C141.431259,133.388062 140.990479,132.398697 140.519135,131.424118 
	C134.804626,119.608482 129.265182,107.702675 123.263412,96.034714 
	C121.348549,92.312065 122.328514,90.648277 125.337570,88.403572 
	C136.611572,79.993340 147.676117,71.302315 159.700378,62.037594 
	C157.639114,62.206055 156.718277,62.258278 155.802887,62.359627 
	C144.911591,63.565483 134.021118,64.778664 123.081955,65.086151 
	C123.081955,49.222866 123.081955,33.359577 123.081955,16.836380 
	C114.651489,34.501278 106.397377,51.796638 97.350571,69.348480 
	C83.455002,71.215996 69.559441,73.083519 55.663872,74.951042 
	C55.586075,75.388138 55.508278,75.825233 55.430481,76.262321 
	C58.233803,77.343658 61.144787,79.567154 63.822384,79.314758 
	C77.718468,78.004845 91.554199,76.056679 105.412544,74.343727 
	C116.275192,73.001053 127.140152,71.677132 139.490616,70.162590 
	C130.155838,77.359833 122.055367,83.605415 113.890556,89.900597 
	C117.535042,98.161705 121.096855,106.235428 124.658669,114.309143 
	C124.032631,114.864838 123.406586,115.420532 122.780548,115.976227 
	C110.796227,108.114044 98.811905,100.251869 86.549835,92.207474 
	C85.739578,94.372650 85.105820,96.066162 84.016685,98.251190 
	C78.131805,110.623070 72.246925,122.994957 65.866165,135.739349 
	C65.704399,136.101715 65.542633,136.464096 65.380875,136.826462 
	C65.982307,136.616379 66.583740,136.406296 67.826096,135.985123 
M55.687115,171.187210 
	C55.806538,175.432266 55.806538,175.432266 58.882549,175.307388 
	C59.078449,173.579086 59.274780,171.847031 59.487930,169.966553 
	C63.309208,169.966553 66.793938,169.953812 70.278351,169.981674 
	C70.747429,169.985413 71.214874,170.193619 71.791695,170.333496 
	C71.936974,172.142365 72.078773,173.907974 72.364395,177.464386 
	C74.086990,175.425079 75.386917,174.572510 75.570053,173.524734 
	C75.937370,171.423294 75.698166,169.215240 75.702812,167.051163 
	C75.720810,158.672180 75.719841,158.653427 67.481377,158.659409 
	C54.157101,158.669098 55.647472,157.383331 55.687115,171.187210 
M144.675964,175.719513 
	C145.161209,172.516235 145.980453,169.321732 146.065018,166.107910 
	C146.266205,158.460022 146.125244,158.406357 138.774261,158.495743 
	C124.163078,158.673416 126.165146,156.455688 126.152817,171.185455 
	C126.151588,172.650284 127.216904,174.116013 127.787209,175.581314 
	C128.425446,174.148560 129.064713,172.716278 129.701324,171.282791 
	C129.886490,170.865799 130.064072,170.445435 130.181503,170.173798 
	C134.313599,170.173798 138.225357,170.173798 141.506577,170.173798 
	C142.405777,172.329605 143.112488,174.023895 144.675964,175.719513 
M163.799118,158.659042 
	C159.026932,158.659042 154.254745,158.659042 149.226578,158.659042 
	C149.226578,163.866608 149.060196,168.512421 149.348038,173.129898 
	C149.416718,174.231674 151.001450,175.238937 152.713440,177.265961 
	C153.094162,173.612732 153.276276,171.865097 153.444870,170.247360 
	C157.679428,169.527969 161.151550,169.476151 163.341721,173.914841 
	C163.992004,175.232681 166.579590,175.594589 168.279480,176.394531 
	C168.481537,176.060211 168.683578,175.725891 168.885635,175.391586 
	C167.858368,173.749222 166.831085,172.106857 165.803818,170.464493 
	C166.298264,170.509399 166.792709,170.554291 167.287155,170.599197 
	C167.925262,167.829041 169.132263,165.021683 168.954529,162.304901 
	C168.869370,161.003235 166.162598,159.873062 163.799118,158.659042 
M78.975868,159.991455 
	C78.975868,165.254089 78.975868,170.516724 78.975868,175.627960 
	C85.078270,176.887894 81.813133,171.933365 83.518204,170.130157 
	C87.453133,169.512115 91.011490,169.564377 93.229988,174.171967 
	C93.788589,175.332123 96.351250,175.527359 97.992935,176.166016 
	C98.149002,175.826981 98.305061,175.487946 98.461121,175.148926 
	C97.495270,173.618103 96.529411,172.087296 95.431282,170.346832 
	C96.045303,169.887787 97.047295,169.534332 97.210274,168.947754 
	C97.882607,166.527878 99.087753,163.834320 98.523727,161.647049 
	C98.171936,160.282791 95.052223,158.944183 93.096542,158.819519 
	C88.499573,158.526505 83.855705,158.968948 78.975868,159.991455 
M186.055725,158.675797 
	C181.664581,158.675797 177.273438,158.675797 172.991333,158.675797 
	C172.991333,164.812057 172.991333,170.239410 172.991333,175.917816 
	C176.020523,175.917816 178.823776,175.918793 181.627029,175.917648 
	C193.164169,175.912888 193.050720,175.914032 192.910172,164.455200 
	C192.857925,160.195831 191.174133,158.282959 186.055725,158.675797 
M14.925144,161.924240 
	C18.586151,161.911011 22.254520,162.020905 25.903273,161.802704 
	C26.881994,161.744171 27.800928,160.685791 28.747301,160.086395 
	C27.850443,159.583633 26.968304,158.680420 26.054203,158.646835 
	C21.899523,158.494125 17.735182,158.633179 13.575615,158.574783 
	C10.548718,158.532288 8.944125,159.639343 8.955218,162.949097 
	C8.966097,166.194809 10.340841,167.464767 13.512620,167.277908 
	C15.833101,167.141190 18.170244,167.297607 20.500021,167.305405 
	C22.684231,167.312714 25.431555,167.054642 24.806911,170.300934 
	C24.591177,171.422134 22.188530,172.731934 20.681692,172.875870 
	C16.851753,173.241776 12.963526,172.997528 8.007760,172.997528 
	C9.261610,174.694092 9.674102,175.757278 10.112184,175.767914 
	C15.266239,175.893234 20.447910,176.166290 25.573023,175.767349 
	C29.263784,175.480072 28.820393,172.141800 28.786833,169.509628 
	C28.754478,166.972137 28.109774,164.863846 24.876677,164.923782 
	C21.716030,164.982391 18.550993,164.979843 15.391814,164.879883 
	C13.311857,164.814056 12.114344,164.109268 14.925144,161.924240 
M120.146042,174.822189 
	C120.821846,174.638931 122.083656,174.468124 122.087852,174.270630 
	C122.196121,169.167236 122.173454,164.061066 122.173454,158.955368 
	C121.518967,158.798355 120.864479,158.641342 120.209999,158.484344 
	C117.364693,161.126358 120.061317,165.648438 118.994453,167.796448 
	C114.294800,167.796448 110.254959,167.796448 105.850700,167.796448 
	C105.850700,166.288391 105.984039,163.809113 105.782097,161.357452 
	C105.706169,160.435684 104.852417,159.577988 104.353271,158.691071 
	C103.742279,159.464554 102.630325,160.220490 102.602531,161.014389 
	C102.436455,165.758163 102.520302,170.510681 102.520302,176.231537 
	C108.462852,172.084625 113.817772,169.094025 120.146042,174.822189 
M40.084881,168.451080 
	C40.087143,169.950531 40.161003,171.453979 40.077103,172.948593 
	C39.889133,176.297104 41.482178,176.422974 44.094173,175.325729 
	C44.094173,173.000992 44.094177,170.842651 44.094177,168.684311 
	C44.094177,166.549988 44.094173,164.415665 44.094173,162.058624 
	C46.875954,161.931366 49.312756,161.819901 51.760136,161.707932 
	C51.389412,158.443863 41.202705,157.323151 32.277603,159.387299 
	C32.142361,159.846588 32.007118,160.305862 31.871878,160.765152 
	C34.546909,161.351257 37.221939,161.937363 40.083866,162.564423 
	C40.083866,164.203720 40.083866,165.853958 40.084881,168.451080 
z"/>
<path fill="#DA68DC" opacity="1.000000" stroke="none" 
	d="
M123.130424,65.989922 
	C134.021118,64.778664 144.911591,63.565483 155.802887,62.359627 
	C156.718277,62.258278 157.639114,62.206055 159.700378,62.037594 
	C147.676117,71.302315 136.611572,79.993340 125.337570,88.403572 
	C122.328514,90.648277 121.348549,92.312065 123.263412,96.034714 
	C129.265182,107.702675 134.804626,119.608482 140.519135,131.424118 
	C140.990479,132.398697 141.431259,133.388062 142.478806,135.650192 
	C127.757408,125.927704 114.242523,117.002022 100.167992,107.759827 
	C94.562927,104.215431 89.517494,100.987549 84.472061,97.759674 
	C85.105820,96.066162 85.739578,94.372650 86.549835,92.207474 
	C98.811905,100.251869 110.796227,108.114044 122.780548,115.976227 
	C123.406586,115.420532 124.032631,114.864838 124.658669,114.309143 
	C121.096855,106.235428 117.535042,98.161705 113.890556,89.900597 
	C122.055367,83.605415 130.155838,77.359833 139.490616,70.162590 
	C127.140152,71.677132 116.275192,73.001053 105.412544,74.343727 
	C91.554199,76.056679 77.718468,78.004845 63.822384,79.314758 
	C61.144787,79.567154 58.233803,77.343658 55.430481,76.262321 
	C55.508278,75.825233 55.586075,75.388138 55.663872,74.951042 
	C69.559441,73.083519 83.455002,71.215996 98.195618,69.226097 
	C107.070587,68.065781 115.100502,67.027855 123.130424,65.989922 
z"/>
<path fill="#8F6CF6" opacity="1.000000" stroke="none" 
	d="
M123.106186,65.538040 
	C115.100502,67.027855 107.070587,68.065781 98.591965,69.097855 
	C106.397377,51.796638 114.651489,34.501278 123.081955,16.836380 
	C123.081955,33.359577 123.081955,49.222866 123.106186,65.538040 
z"/>
<path fill="#8F6CF4" opacity="1.000000" stroke="none" 
	d="
M84.244370,98.005432 
	C89.517494,100.987549 94.562927,104.215431 99.826904,107.697197 
	C89.305664,117.295769 78.565880,126.640450 67.304665,135.878540 
	C66.642838,135.636932 66.502441,135.501892 66.362038,135.366837 
	C72.246925,122.994957 78.131805,110.623070 84.244370,98.005432 
z"/>
<path fill="#EEEEEE" opacity="1.000000" stroke="none" 
	d="
M55.689121,170.735870 
	C55.647472,157.383331 54.157101,158.669098 67.481377,158.659409 
	C75.719841,158.653427 75.720810,158.672180 75.702812,167.051163 
	C75.698166,169.215240 75.937370,171.423294 75.570053,173.524734 
	C75.386917,174.572510 74.086990,175.425079 72.364395,177.464386 
	C72.078773,173.907974 71.936974,172.142365 71.791695,170.333496 
	C71.214874,170.193619 70.747429,169.985413 70.278351,169.981674 
	C66.793938,169.953812 63.309208,169.966553 59.487930,169.966553 
	C59.274780,171.847031 59.078449,173.579086 58.882549,175.307388 
	C55.806538,175.432266 55.806538,175.432266 55.689121,170.735870 
M69.773445,163.772232 
	C68.507713,163.044510 67.241982,162.316788 65.909546,161.550705 
	C64.316910,162.490158 62.670811,163.461136 61.020618,164.434525 
	C62.657558,165.367065 64.276016,166.289093 66.148819,167.356003 
	C67.478317,166.321365 68.953499,165.173370 69.773445,163.772232 
z"/>
<path fill="#EAEAEA" opacity="1.000000" stroke="none" 
	d="
M144.247589,175.718842 
	C143.112488,174.023895 142.405777,172.329605 141.506577,170.173798 
	C138.225357,170.173798 134.313599,170.173798 130.181503,170.173798 
	C130.064072,170.445435 129.886490,170.865799 129.701324,171.282791 
	C129.064713,172.716278 128.425446,174.148560 127.787216,175.581314 
	C127.216904,174.116013 126.151588,172.650284 126.152817,171.185455 
	C126.165146,156.455688 124.163078,158.673416 138.774261,158.495743 
	C146.125244,158.406357 146.266205,158.460022 146.065018,166.107910 
	C145.980453,169.321732 145.161209,172.516235 144.247589,175.718842 
M132.996078,163.276352 
	C132.664062,163.768677 132.015656,164.672440 132.044937,164.694962 
	C135.196777,167.118744 138.275162,166.604721 141.140610,164.446457 
	C139.600571,163.367538 138.014694,162.256516 136.408188,161.131027 
	C135.532578,161.749298 134.592514,162.413086 132.996078,163.276352 
z"/>
<path fill="#EAEAEA" opacity="1.000000" stroke="none" 
	d="
M164.221130,158.662140 
	C166.162598,159.873062 168.869370,161.003235 168.954529,162.304901 
	C169.132263,165.021683 167.925262,167.829041 167.287155,170.599197 
	C166.792709,170.554291 166.298264,170.509399 165.803818,170.464493 
	C166.831085,172.106857 167.858368,173.749222 168.885635,175.391586 
	C168.683578,175.725891 168.481537,176.060211 168.279480,176.394531 
	C166.579590,175.594589 163.992004,175.232681 163.341721,173.914841 
	C161.151550,169.476151 157.679428,169.527969 153.444870,170.247360 
	C153.276276,171.865097 153.094162,173.612732 152.713440,177.265961 
	C151.001450,175.238937 149.416718,174.231674 149.348038,173.129898 
	C149.060196,168.512421 149.226578,163.866608 149.226578,158.659042 
	C154.254745,158.659042 159.026932,158.659042 164.221130,158.662140 
M156.648132,167.241455 
	C158.467453,167.239059 160.347610,167.514313 162.084091,167.133820 
	C163.188889,166.891739 164.080444,165.676392 165.067612,164.897446 
	C164.095322,164.037186 163.196381,162.561234 162.136642,162.434982 
	C159.247711,162.090805 156.290878,162.316650 153.360947,162.316650 
	C153.029633,162.828461 152.698334,163.340271 152.367035,163.852066 
	C153.483566,164.981567 154.600098,166.111053 156.648132,167.241455 
z"/>
<path fill="#EEEEEE" opacity="1.000000" stroke="none" 
	d="
M79.103348,159.552612 
	C83.855705,158.968948 88.499573,158.526505 93.096542,158.819519 
	C95.052223,158.944183 98.171936,160.282791 98.523727,161.647049 
	C99.087753,163.834320 97.882607,166.527878 97.210274,168.947754 
	C97.047295,169.534332 96.045303,169.887787 95.431282,170.346832 
	C96.529411,172.087296 97.495270,173.618103 98.461121,175.148926 
	C98.305061,175.487946 98.149002,175.826981 97.992935,176.166016 
	C96.351250,175.527359 93.788589,175.332123 93.229988,174.171967 
	C91.011490,169.564377 87.453133,169.512115 83.518204,170.130157 
	C81.813133,171.933365 85.078270,176.887894 78.975868,175.627960 
	C78.975868,170.516724 78.975868,165.254089 79.103348,159.552612 
M84.650398,167.250259 
	C87.124336,167.247177 89.622040,167.440598 92.060692,167.145752 
	C93.057198,167.025269 93.925903,165.847778 94.852753,165.151169 
	C93.950211,164.198380 93.137184,162.554764 92.128128,162.423996 
	C89.247902,162.050781 86.287949,162.292801 82.653648,162.292801 
	C83.086266,164.301117 83.398026,165.748383 84.650398,167.250259 
z"/>
<path fill="#E9E9E9" opacity="1.000000" stroke="none" 
	d="
M186.495789,158.675735 
	C191.174133,158.282959 192.857925,160.195831 192.910172,164.455200 
	C193.050720,175.914032 193.164169,175.912888 181.627029,175.917648 
	C178.823776,175.918793 176.020523,175.917816 172.991333,175.917816 
	C172.991333,170.239410 172.991333,164.812057 172.991333,158.675797 
	C177.273438,158.675797 181.664581,158.675797 186.495789,158.675735 
M176.242737,168.399445 
	C176.320160,169.838730 176.397568,171.278000 176.471771,172.657562 
	C189.788284,173.910690 191.167786,172.691696 188.570450,162.218948 
	C184.557449,162.218948 180.525803,162.218948 176.244156,162.218948 
	C176.244156,164.196121 176.244156,165.833755 176.242737,168.399445 
z"/>
<path fill="#8769E6" opacity="1.000000" stroke="none" 
	d="
M14.468607,161.972427 
	C12.114344,164.109268 13.311857,164.814056 15.391814,164.879883 
	C18.550993,164.979843 21.716030,164.982391 24.876677,164.923782 
	C28.109774,164.863846 28.754478,166.972137 28.786833,169.509628 
	C28.820393,172.141800 29.263784,175.480072 25.573023,175.767349 
	C20.447910,176.166290 15.266239,175.893234 10.112184,175.767914 
	C9.674102,175.757278 9.261610,174.694092 8.007760,172.997528 
	C12.963526,172.997528 16.851753,173.241776 20.681692,172.875870 
	C22.188530,172.731934 24.591177,171.422134 24.806911,170.300934 
	C25.431555,167.054642 22.684231,167.312714 20.500021,167.305405 
	C18.170244,167.297607 15.833101,167.141190 13.512620,167.277908 
	C10.340841,167.464767 8.966097,166.194809 8.955218,162.949097 
	C8.944125,159.639343 10.548718,158.532288 13.575615,158.574783 
	C17.735182,158.633179 21.899523,158.494125 26.054203,158.646835 
	C26.968304,158.680420 27.850443,159.583633 28.747303,160.086395 
	C27.800928,160.685791 26.881994,161.744171 25.903273,161.802704 
	C22.254520,162.020905 18.586151,161.911011 14.468607,161.972427 
z"/>
<path fill="#D969DB" opacity="1.000000" stroke="none" 
	d="
M119.846863,174.665039 
	C113.817772,169.094025 108.462852,172.084625 102.520302,176.231537 
	C102.520302,170.510681 102.436455,165.758163 102.602531,161.014389 
	C102.630325,160.220490 103.742279,159.464554 104.353271,158.691071 
	C104.852417,159.577988 105.706169,160.435684 105.782097,161.357452 
	C105.984039,163.809113 105.850700,166.288391 105.850700,167.796448 
	C110.254959,167.796448 114.294800,167.796448 118.994453,167.796448 
	C120.061317,165.648438 117.364693,161.126358 120.209999,158.484344 
	C120.864479,158.641342 121.518967,158.798355 122.173454,158.955368 
	C122.173454,164.061066 122.196121,169.167236 122.087852,174.270630 
	C122.083656,174.468124 120.821846,174.638931 119.846863,174.665039 
z"/>
<path fill="#ECECEC" opacity="1.000000" stroke="none" 
	d="
M40.084373,167.977631 
	C40.083866,165.853958 40.083866,164.203720 40.083866,162.564423 
	C37.221939,161.937363 34.546909,161.351257 31.871878,160.765152 
	C32.007118,160.305862 32.142361,159.846588 32.277603,159.387299 
	C41.202705,157.323151 51.389412,158.443863 51.760136,161.707932 
	C49.312756,161.819901 46.875954,161.931366 44.094173,162.058624 
	C44.094173,164.415665 44.094177,166.549988 44.094177,168.684311 
	C44.094177,170.842651 44.094173,173.000992 44.094173,175.325729 
	C41.482178,176.422974 39.889133,176.297104 40.077103,172.948593 
	C40.161003,171.453979 40.087143,169.950531 40.084373,167.977631 
z"/>
<path fill="#8F6CF4" opacity="1.000000" stroke="none" 
	d="
M66.984207,135.984100 
	C66.583740,136.406296 65.982307,136.616379 65.380875,136.826462 
	C65.542633,136.464096 65.704399,136.101715 66.114105,135.553101 
	C66.502441,135.501892 66.642838,135.636932 66.984207,135.984100 
z"/>
<path fill="#1B1B1B" opacity="1.000000" stroke="none" 
	d="
M70.101059,163.898804 
	C68.953499,165.173370 67.478317,166.321365 66.148819,167.356003 
	C64.276016,166.289093 62.657558,165.367065 61.020618,164.434525 
	C62.670811,163.461136 64.316910,162.490158 65.909546,161.550705 
	C67.241982,162.316788 68.507713,163.044510 70.101059,163.898804 
z"/>
<path fill="#212121" opacity="1.000000" stroke="none" 
	d="
M133.324249,163.176605 
	C134.592514,162.413086 135.532578,161.749298 136.408188,161.131027 
	C138.014694,162.256516 139.600571,163.367538 141.140610,164.446457 
	C138.275162,166.604721 135.196777,167.118744 132.044937,164.694962 
	C132.015656,164.672440 132.664062,163.768677 133.324249,163.176605 
z"/>
<path fill="#191919" opacity="1.000000" stroke="none" 
	d="
M156.182373,167.240997 
	C154.600098,166.111053 153.483566,164.981567 152.367035,163.852066 
	C152.698334,163.340271 153.029633,162.828461 153.360947,162.316650 
	C156.290878,162.316650 159.247711,162.090805 162.136642,162.434982 
	C163.196381,162.561234 164.095322,164.037186 165.067612,164.897446 
	C164.080444,165.676392 163.188889,166.891739 162.084091,167.133820 
	C160.347610,167.514313 158.467453,167.239059 156.182373,167.240997 
z"/>
<path fill="#1A1A1A" opacity="1.000000" stroke="none" 
	d="
M84.180092,167.222961 
	C83.398026,165.748383 83.086266,164.301117 82.653648,162.292801 
	C86.287949,162.292801 89.247902,162.050781 92.128128,162.423996 
	C93.137184,162.554764 93.950211,164.198380 94.852753,165.151154 
	C93.925903,165.847778 93.057198,167.025269 92.060692,167.145752 
	C89.622040,167.440598 87.124336,167.247177 84.180092,167.222961 
z"/>
<path fill="#080808" opacity="1.000000" stroke="none" 
	d="
M176.243439,167.935425 
	C176.244156,165.833755 176.244156,164.196121 176.244156,162.218948 
	C180.525803,162.218948 184.557449,162.218948 188.570450,162.218948 
	C191.167786,172.691696 189.788284,173.910690 176.471771,172.657562 
	C176.397568,171.278000 176.320160,169.838730 176.243439,167.935425 
z"/>
</svg>