<?xml version="1.0" encoding="UTF-8"?>
<svg version="1.1" xmlns="http://www.w3.org/2000/svg" width="632" height="671">
<path d="M0 0 C208.56 0 417.12 0 632 0 C632 221.43 632 442.86 632 671 C423.44 671 214.88 671 0 671 C0 449.57 0 228.14 0 0 Z " fill="#00274C" transform="translate(0,0)"/>
<path d="M0 0 C33.0305756 -0.40303034 33.0305756 -0.40303034 46.88671875 -0.48828125 C56.44927684 -0.5475885 66.01095295 -0.61725338 75.57275391 -0.75439453 C82.53714578 -0.85423424 89.50082136 -0.91862039 96.465909 -0.94088495 C100.1525423 -0.95389613 103.83712697 -0.98434704 107.52310181 -1.05730057 C111.64391935 -1.13819499 115.76120316 -1.13988936 119.8828125 -1.13525391 C121.09769852 -1.17120667 122.31258453 -1.20715942 123.56428528 -1.24420166 C128.47163288 -1.18450715 131.68851277 -1.14067202 135.48316956 2.15974808 C137.53077448 4.68775373 139.28757118 7.23693526 141 10 C141.97444768 11.3603865 142.95577178 12.71592552 143.94921875 14.0625 C144.86491013 15.37295684 145.77761411 16.68550562 146.6875 18 C147.72310337 19.48106694 148.75959206 20.96151514 149.796875 22.44140625 C150.32345703 23.19309082 150.85003906 23.94477539 151.39257812 24.71923828 C154.04361648 28.48078146 156.73893916 32.20996813 159.4375 35.9375 C159.97721436 36.68322266 160.51692871 37.42894531 161.07299805 38.19726562 C162.16804572 39.70965265 163.26334219 41.22185957 164.35888672 42.73388672 C167.07648173 46.486448 169.78794473 50.24343419 172.5 54 C173.58330362 55.50002146 174.66663696 57.00002146 175.75 58.5 C195.25 85.5 195.25 85.5 196.87646484 87.75219727 C197.95470125 89.24502772 199.03315015 90.73770472 200.11181641 92.23022461 C202.89993742 96.08865697 205.68378628 99.95006911 208.4609375 103.81640625 C213.85015442 111.31225454 219.23912167 118.78250654 225 126 C225.32572998 125.54898926 225.65145996 125.09797852 225.98706055 124.63330078 C248.40804036 93.58886719 270.82902018 62.54443359 293.25 31.5 C293.75498363 30.79752199 294.25996725 30.09504398 294.78025341 29.37127876 C295.86205979 27.87962614 296.95501335 26.39593211 298.06365681 24.92411613 C300.87727933 21.15206103 303.34166691 17.48121486 305.40336609 13.24539185 C308.64622161 7.04988982 312.06684559 1.31035032 318.98871231 -0.99570465 C327.39288888 -2.44614058 335.88926588 -2.1281453 344.37661958 -1.82509089 C348.09689011 -1.71160015 351.817496 -1.70192148 355.53923035 -1.68063354 C362.56777698 -1.6249558 369.59120916 -1.47766007 376.61751527 -1.29634273 C386.1247143 -1.05639773 395.6333393 -0.96014699 405.14280796 -0.85530281 C420.09902736 -0.68666278 435.04446079 -0.32798123 450 0 C450 30.03 450 60.06 450 91 C438.78 91 427.56 91 416 91 C416 137.2 416 183.4 416 231 C427.22 231 438.44 231 450 231 C450 261.03 450 291.06 450 322 C393.9 322 337.8 322 280 322 C280 291.97 280 261.94 280 231 C292.21 231 304.42 231 317 231 C316.505 186.945 316.505 186.945 316 142 C307.99636561 152.86207524 300.02912706 163.72687381 292.14453125 174.671875 C288.68201038 179.45613946 285.14076258 184.17897871 281.5871582 188.89575195 C272.49500425 200.96957353 263.57958256 213.17118776 254.75415039 225.44091797 C250.75365084 230.98942898 246.6670529 236.46765452 242.54541016 241.92651367 C236.57153647 249.8595396 230.78733664 257.93041278 225 266 C220.55436472 261.84465807 217.06330977 257.232691 213.5 252.3125 C212.88906494 251.475979 212.27812988 250.63945801 211.64868164 249.77758789 C209.76056084 247.18881152 207.87927037 244.59520648 206 242 C205.43651855 241.22301758 204.87303711 240.44603516 204.29248047 239.64550781 C199.98036721 233.69661444 195.68729081 227.73407481 191.39550781 221.77050781 C185.3076125 213.31406964 179.19131259 204.88111091 173 196.5 C166.26461506 187.38238441 159.62234852 178.19989751 153 169 C150.68866505 165.79082536 148.37586948 162.58270821 146.0625 159.375 C145.54292725 158.65304443 145.02335449 157.93108887 144.48803711 157.18725586 C143.98796143 156.4938208 143.48788574 155.80038574 142.97265625 155.0859375 C142.54218994 154.4882959 142.11172363 153.8906543 141.66821289 153.27490234 C139.14099237 149.82859167 136.56417712 146.41890282 134 143 C133.505 186.56 133.505 186.56 133 231 C144.88 231 156.76 231 169 231 C169 261.03 169 291.06 169 322 C113.23 322 57.46 322 0 322 C0 291.97 0 261.94 0 231 C11.22 231 22.44 231 34 231 C34 184.8 34 138.6 34 91 C22.78 91 11.56 91 0 91 C0 60.97 0 30.94 0 0 Z " fill="#FECA05" transform="translate(91,91)"/>
<path d="M0 0 C7.20703125 21.62109375 7.20703125 21.62109375 7.99676514 23.99151611 C8.52642905 25.57969179 9.05707428 27.16754052 9.58868408 28.75506592 C10.95963365 32.85332452 12.31166414 36.95636762 13.63183594 41.07128906 C13.89701019 41.88937042 14.16218445 42.70745178 14.43539429 43.55032349 C14.93888697 45.10518133 15.43649369 46.66196206 15.92715454 48.22091675 C17.13809903 51.93925757 18.25427993 55.15329738 21 58 C23.27889342 58.48168728 23.27889342 58.48168728 25.6875 58.25 C26.89986328 58.19585938 26.89986328 58.19585938 28.13671875 58.140625 C28.75160156 58.09421875 29.36648438 58.0478125 30 58 C30.95162372 55.14512885 31.12163139 53.39545683 31.11352539 50.43676758 C31.11344986 49.51603958 31.11337433 48.59531158 31.11329651 47.64668274 C31.10555458 46.16061775 31.10555458 46.16061775 31.09765625 44.64453125 C31.0962413 43.62775803 31.09482635 42.6109848 31.09336853 41.56340027 C31.08776707 38.31307036 31.07521432 35.06280912 31.0625 31.8125 C31.05748519 29.61002704 31.05292225 27.40755299 31.04882812 25.20507812 C31.03779717 19.80336196 31.02105762 14.40168588 31 9 C28.69 8.01 26.38 7.02 24 6 C24 4.68 24 3.36 24 2 C30.04462501 0.88976275 36.05079333 0.0459616 42 2 C47.31285743 5.96325163 50.70132912 11.96143721 54.26611328 17.44580078 C57.12371459 21.65535089 60.40444656 25.4943695 63.6875 29.375 C64.83897864 30.75636471 65.98883885 32.13908088 67.13671875 33.5234375 C67.61842529 34.10013184 68.10013184 34.67682617 68.59643555 35.27099609 C70.11672562 37.14379037 71.56395529 39.06209601 73 41 C73.07406517 36.4793661 73.12856045 31.959084 73.16479492 27.43798828 C73.17989711 25.89951426 73.20038046 24.36108339 73.22631836 22.82275391 C73.26264074 20.61349859 73.27971119 18.40481152 73.29296875 16.1953125 C73.30845261 15.50567413 73.32393646 14.81603577 73.33988953 14.10549927 C73.37537883 11.95571414 73.37537883 11.95571414 73 9 C69.81237635 6.87491756 67.73487777 6.4979837 64 6 C64 4.68 64 3.36 64 2 C71.92 2 79.84 2 88 2 C88 3.32 88 4.64 88 6 C86.02 6.66 84.04 7.32 82 8 C81.34 26.48 80.68 44.96 80 64 C74.50488948 62.9009779 73.12473835 61.42847852 69.875 57.3125 C69.39981934 56.73089111 68.92463867 56.14928223 68.43505859 55.55004883 C66.94119403 53.7118817 65.46793161 51.85892273 64 50 C63.54818359 49.42991211 63.09636719 48.85982422 62.63085938 48.27246094 C60.84340539 46.0126271 59.06190889 43.74837169 57.29125977 41.4753418 C51.64190111 34.22400158 45.81050563 27.12255529 40 20 C40 32.54 40 45.08 40 58 C42.97 58.33 45.94 58.66 49 59 C49 60.32 49 61.64 49 63 C31.84 63 14.68 63 -3 63 C-3 61.68 -3 60.36 -3 59 C-0.03 58.505 -0.03 58.505 3 58 C3.07622858 54.03611362 2.9681648 50.8726592 2 47 C-4.93 47 -11.86 47 -19 47 C-19.66 50.63 -20.32 54.26 -21 58 C-17.535 58.495 -17.535 58.495 -14 59 C-13.67 60.32 -13.34 61.64 -13 63 C-21.58 63 -30.16 63 -39 63 C-38.67 61.68 -38.34 60.36 -38 59 C-36.9078418 58.80519043 -35.81568359 58.61038086 -34.69042969 58.40966797 C-30.82001723 57.35913576 -30.82001723 57.35913576 -29.22363281 54.12548828 C-28.80436523 52.91103027 -28.38509766 51.69657227 -27.953125 50.4453125 C-27.71482971 49.78242218 -27.47653442 49.11953186 -27.23101807 48.43655396 C-26.72485538 47.02216663 -26.23041076 45.60353955 -25.74682617 44.18127441 C-25.00920765 42.02689303 -24.23250378 39.89137572 -23.43945312 37.75683594 C-21.84888402 33.47261655 -20.29696033 29.17512378 -18.75 24.875 C-17.95571732 22.67306653 -17.16069522 20.47140374 -16.36480713 18.27005005 C-15.87623525 16.91811873 -15.38865917 15.56582695 -14.90228271 14.21310425 C-14.27459197 12.47307952 -13.63761817 10.73641147 -13 9 C-12.65936523 8.05503662 -12.31873047 7.11007324 -11.96777344 6.13647461 C-10.67867905 3.29064591 -9.36248125 2.81669309 -6.5 1.6875 C-5.7059375 1.36136719 -4.911875 1.03523437 -4.09375 0.69921875 C-2 0 -2 0 0 0 Z " fill="#F6F7F9" transform="translate(453,516)"/>
<path d="M0 0 C6.6 0 13.2 0 20 0 C21.87735702 4.35315957 23.75289709 8.70708017 25.625 13.0625 C25.8997818 13.70160309 26.1745636 14.34070618 26.45767212 14.99917603 C30.103356 23.48594879 33.67453588 31.99179616 37.01171875 40.60546875 C37.78463376 42.91258647 37.78463376 42.91258647 39 44 C39.5347998 42.80922852 40.06959961 41.61845703 40.62060547 40.39160156 C42.60641253 35.97064794 44.5933232 31.55019105 46.58056641 27.12988281 C47.44024244 25.21725767 48.29961977 23.30449825 49.15869141 21.39160156 C50.39406954 18.64092147 51.63052367 15.89072726 52.8671875 13.140625 C53.25059296 12.28631897 53.63399841 11.43201294 54.02902222 10.55181885 C54.38924469 9.75129089 54.74946716 8.95076294 55.12060547 8.12597656 C55.43593231 7.42426331 55.75125916 6.72255005 56.07614136 5.99957275 C57.0092373 3.98000706 58.00508155 1.9898369 59 0 C65.27 0 71.54 0 78 0 C78 1.32 78 2.64 78 4 C76.02 4.66 74.04 5.32 72 6 C71.97470521 12.79930835 71.95715651 19.59860463 71.94506836 26.39794922 C71.94003057 28.71240696 71.93320019 31.0268615 71.92456055 33.34130859 C71.91247076 36.6624429 71.90676625 39.98353525 71.90234375 43.3046875 C71.89718246 44.34430634 71.89202118 45.38392517 71.88670349 46.45504761 C71.88659019 47.89631516 71.88659019 47.89631516 71.88647461 49.36669922 C71.884254 50.21497284 71.88203339 51.06324646 71.87974548 51.93722534 C71.86767816 54.06402393 71.86767816 54.06402393 73 56 C75.52733235 56.65555119 75.52733235 56.65555119 78 57 C78 58.32 78 59.64 78 61 C69.09 61 60.18 61 51 61 C51 59.68 51 58.36 51 57 C51.969375 56.87625 52.93875 56.7525 53.9375 56.625 C54.948125 56.41875 55.95875 56.2125 57 56 C58.58645357 52.82709287 58.12078213 49.41174616 58.09765625 45.9296875 C58.0962413 45.13345978 58.09482635 44.33723206 58.09336853 43.51687622 C58.08776345 40.9695462 58.07521014 38.42230353 58.0625 35.875 C58.05748565 34.14974085 58.05292263 32.42448033 58.04882812 30.69921875 C58.03779237 26.46611209 58.02052436 22.23307086 58 18 C57.64284912 18.79994385 57.28569824 19.5998877 56.91772461 20.42407227 C43.80801859 49.77148087 43.80801859 49.77148087 38 62 C36.02 62 34.04 62 32 62 C26.06 47.48 20.12 32.96 14 18 C14 30.21 14 42.42 14 55 C15.98 55.66 17.96 56.32 20 57 C20 58.32 20 59.64 20 61 C13.07 61 6.14 61 -1 61 C-1 59.68 -1 58.36 -1 57 C0.98 56.34 2.96 55.68 5 55 C5.66 38.5 6.32 22 7 5 C4.69 4.67 2.38 4.34 0 4 C0 2.68 0 1.36 0 0 Z " fill="#F7F8F9" transform="translate(92,518)"/>
<path d="M0 0 C8.58 0 17.16 0 26 0 C26 1.32 26 2.64 26 4 C23.69 4.66 21.38 5.32 19 6 C18.67 12.6 18.34 19.2 18 26 C27.24 26 36.48 26 46 26 C45.8453125 21.6378125 45.8453125 21.6378125 45.6875 17.1875 C45.66260498 16.27508545 45.63770996 15.3626709 45.61206055 14.42260742 C45.57894775 13.69920166 45.54583496 12.9757959 45.51171875 12.23046875 C45.48553467 11.49207764 45.45935059 10.75368652 45.43237305 9.99291992 C44.88625444 7.47571712 44.0107064 6.57141761 42 5 C39.39388923 4.27802838 39.39388923 4.27802838 37 4 C37 2.68 37 1.36 37 0 C45.91 0 54.82 0 64 0 C64 1.32 64 2.64 64 4 C62.02 4.66 60.04 5.32 58 6 C57.97470521 12.79930835 57.95715651 19.59860463 57.94506836 26.39794922 C57.94003057 28.71240696 57.93320019 31.0268615 57.92456055 33.34130859 C57.91247076 36.6624429 57.90676625 39.98353525 57.90234375 43.3046875 C57.89718246 44.34430634 57.89202118 45.38392517 57.88670349 46.45504761 C57.88662796 47.41589264 57.88655243 48.37673767 57.88647461 49.36669922 C57.884254 50.21497284 57.88203339 51.06324646 57.87974548 51.93722534 C57.86767816 54.06402393 57.86767816 54.06402393 59 56 C61.52733235 56.65555119 61.52733235 56.65555119 64 57 C64 58.32 64 59.64 64 61 C55.09 61 46.18 61 37 61 C37 59.68 37 58.36 37 57 C39.64 56.67 42.28 56.34 45 56 C45.33 48.41 45.66 40.82 46 33 C36.76 33 27.52 33 18 33 C18.144375 36.42375 18.28875 39.8475 18.4375 43.375 C18.48060303 44.45313965 18.52370605 45.5312793 18.56811523 46.64208984 C18.6252771 47.91366943 18.6252771 47.91366943 18.68359375 49.2109375 C18.72025146 50.08024902 18.75690918 50.94956055 18.79467773 51.84521484 C18.87401544 54.0483262 18.87401544 54.0483262 20 56 C23.02934491 56.65772428 23.02934491 56.65772428 26 57 C26 58.32 26 59.64 26 61 C17.42 61 8.84 61 0 61 C0 59.68 0 58.36 0 57 C2.97 56.505 2.97 56.505 6 56 C6.05058729 49.05829978 6.08568579 42.11664685 6.10986328 35.17480469 C6.11993924 32.81183089 6.13360029 30.44886961 6.15087891 28.0859375 C6.17505724 24.69528112 6.18646699 21.30478916 6.1953125 17.9140625 C6.20563507 16.85256989 6.21595764 15.79107727 6.22659302 14.69741821 C6.22674408 13.71655243 6.22689514 12.73568665 6.22705078 11.72509766 C6.231492 10.85905914 6.23593323 9.99302063 6.24050903 9.10073853 C6.19557184 6.78084656 6.19557184 6.78084656 4 5 C1.93125966 4.3574765 1.93125966 4.3574765 0 4 C0 2.68 0 1.36 0 0 Z " fill="#F7F8F9" transform="translate(262,518)"/>
<path d="M0 0 C2.04114664 0.81209216 2.04114664 0.81209216 4 1 C4.99 0.34 5.98 -0.32 7 -1 C7 5.27 7 11.54 7 18 C6.01 18 5.02 18 4 18 C2.45703125 15.734375 2.45703125 15.734375 0.8125 12.75 C-2.39248885 7.52929489 -4.9663535 4.48882186 -11 3 C-16.35199055 2.14035385 -20.83527233 2.60881623 -25.4296875 5.58984375 C-30.20279388 9.87614077 -32.84938968 15.54826159 -33.23828125 21.87890625 C-33.59347632 35.74727086 -33.59347632 35.74727086 -27.4921875 47.89453125 C-23.85574265 51.50560555 -20.32731507 52.97491992 -15.21875 53.24609375 C-11.3860945 52.82099288 -9.09969144 51.26019168 -6 49 C-4.4364652 45.87293041 -4.60041513 42.42017557 -5 39 C-6.66954819 35.77595022 -6.66954819 35.77595022 -9.625 35.3125 C-10.800625 35.1578125 -10.800625 35.1578125 -12 35 C-12 33.68 -12 32.36 -12 31 C-4.08 31 3.84 31 12 31 C12 32.32 12 33.64 12 35 C11.03320312 35.24363281 11.03320312 35.24363281 10.046875 35.4921875 C7.5663746 36.95214403 7.5663746 36.95214403 7.390625 40.6953125 C7.32414708 42.17112237 7.27806121 43.64796017 7.25 45.125 C7.20552734 46.25615234 7.20552734 46.25615234 7.16015625 47.41015625 C7.08942068 49.27285953 7.04245017 51.13643755 7 53 C-3.60925545 59.50494495 -13.79096057 60.65845333 -26 59 C-33.5820948 57.00901827 -38.60656132 52.35125751 -43 46 C-43.43441406 45.39027344 -43.86882812 44.78054688 -44.31640625 44.15234375 C-48.64334978 36.56888523 -48.16847086 26.41408225 -47 18 C-44.13842397 8.2351329 -38.32556053 2.36923217 -29.9375 -2.9375 C-19.97415477 -6.58540672 -9.32636102 -3.99701187 0 0 Z " fill="#F8F9FA" transform="translate(405,521)"/>
<path d="M0 0 C4.47217828 3.4960681 7.162176 6.86494212 8.484375 12.46484375 C9.32245671 19.56779369 8.98047191 25.43718659 4.75390625 31.37109375 C-0.33446851 36.719541 -3.87045203 38.56288937 -11.30859375 38.80859375 C-17.36349089 38.85483088 -21.72374377 38.06965128 -26.50390625 34.19140625 C-31.15720154 29.329443 -32.46593429 25.0141794 -32.68359375 18.30859375 C-32.41891369 11.06183622 -30.4870773 5.6120773 -25.24609375 0.37109375 C-17.77137087 -4.14488465 -7.59608278 -4.5830228 0 0 Z " fill="#F6F8F9" transform="translate(500.24609375,461.62890625)"/>
<path d="M0 0 C0.928125 0.598125 1.85625 1.19625 2.8125 1.8125 C3.534375 2.204375 4.25625 2.59625 5 3 C6.32 2.34 7.64 1.68 9 1 C9 6.94 9 12.88 9 19 C8.01 19 7.02 19 6 19 C4.60546875 16.953125 4.60546875 16.953125 3.1875 14.25 C-0.03219298 8.58750514 -2.75054794 6.08315069 -9 4 C-13.66694522 3.45774541 -17.07771048 3.5301544 -21.3125 5.6875 C-27.25815369 10.80352759 -30.49382614 16.23098843 -31.32421875 24.0546875 C-31.58075731 31.57392114 -30.37840264 37.3048444 -27 44 C-26.66355469 44.72832031 -26.32710937 45.45664062 -25.98046875 46.20703125 C-24.68492238 48.57617781 -23.48323732 49.00670507 -21 50 C-20.29875 50.37125 -19.5975 50.7425 -18.875 51.125 C-13.03353152 52.90283823 -7.21370039 52.89270373 -1.625 50.3125 C1.70905792 48.42949968 3.86079948 46.20880078 6 43 C7.32 43.66 8.64 44.32 10 45 C8.62944224 50.65355074 4.59822512 53.81661338 0 57 C-8.13755725 61.49808283 -15.97009089 61.70806715 -25 60 C-27.96665975 59.00956344 -30.42030587 57.7554504 -33 56 C-34.3303125 55.13375 -34.3303125 55.13375 -35.6875 54.25 C-41.39513032 48.69662996 -44.70055896 41.97051036 -45.30078125 34.01171875 C-45.32030047 32.57043938 -45.32371189 31.12886794 -45.3125 29.6875 C-45.30686035 28.933479 -45.3012207 28.17945801 -45.29541016 27.40258789 C-45.09363192 18.1477595 -42.72882429 10.64506299 -36 4 C-25.10603061 -3.80564785 -12.46801189 -5.96759543 0 0 Z " fill="#F8F9FA" transform="translate(247,520)"/>
<path d="M0 0 C3.70806596 -0.11674705 7.4156554 -0.18743274 11.125 -0.25 C12.17171875 -0.28351563 13.2184375 -0.31703125 14.296875 -0.3515625 C20.53205705 -0.43048886 24.31104102 -0.2738708 29 4 C31.10397923 7.15596884 31.29579136 7.74451675 31 11.3125 C30.95875 12.05113281 30.9175 12.78976562 30.875 13.55078125 C29.52675842 17.32465388 26.92908837 19.30072043 24 22 C25.40415374 24.46627002 26.82230602 26.92240971 28.25 29.375 C28.64574219 30.07367188 29.04148437 30.77234375 29.44921875 31.4921875 C29.84238281 32.1625 30.23554688 32.8328125 30.640625 33.5234375 C30.99672852 34.14138184 31.35283203 34.75932617 31.71972656 35.39599609 C33.2553534 37.31992217 34.75360133 38.05087584 37 39 C37 39.66 37 40.32 37 41 C32.32241812 41.46775819 29.00605223 41.5523424 24.8125 39.25 C21.19089577 35.79894223 19.44403125 31.06809497 17.4921875 26.546875 C16.99976563 25.70640625 16.50734375 24.8659375 16 24 C14.68 23.67 13.36 23.34 12 23 C12.33 27.95 12.66 32.9 13 38 C13.99 38 14.98 38 16 38 C16 38.66 16 39.32 16 40 C10.39 40 4.78 40 -1 40 C-1 39.34 -1 38.68 -1 38 C1.475 37.505 1.475 37.505 4 37 C3.93124979 32.33638049 3.84334875 27.6736686 3.73754883 23.01074219 C3.7042602 21.42393035 3.67624053 19.83699897 3.65356445 18.25 C3.62008922 15.97083516 3.5677814 13.69276959 3.51171875 11.4140625 C3.50532883 10.70255035 3.4989389 9.99103821 3.49235535 9.25796509 C3.45990352 7.0399544 3.45990352 7.0399544 3 4 C2.01 3.34 1.02 2.68 0 2 C0 1.34 0 0.68 0 0 Z " fill="#F1F3F5" transform="translate(281,459)"/>
<path d="M0 0 C8.58 0 17.16 0 26 0 C26 1.32 26 2.64 26 4 C24.02 4.66 22.04 5.32 20 6 C19.97470521 12.79930835 19.95715651 19.59860463 19.94506836 26.39794922 C19.94003057 28.71240696 19.93320019 31.0268615 19.92456055 33.34130859 C19.91247076 36.6624429 19.90676625 39.98353525 19.90234375 43.3046875 C19.89718246 44.34430634 19.89202118 45.38392517 19.88670349 46.45504761 C19.88662796 47.41589264 19.88655243 48.37673767 19.88647461 49.36669922 C19.88314369 50.63910965 19.88314369 50.63910965 19.87974548 51.93722534 C19.86767816 54.06402393 19.86767816 54.06402393 21 56 C23.52733235 56.65555119 23.52733235 56.65555119 26 57 C26 58.32 26 59.64 26 61 C17.42 61 8.84 61 0 61 C0.33 59.68 0.66 58.36 1 57 C3.97 56.505 3.97 56.505 7 56 C7.07596188 49.219067 7.1285625 42.4382434 7.16479492 35.65698242 C7.17989676 33.34932352 7.20037969 31.04169339 7.22631836 28.73413086 C7.26263975 25.42033801 7.27971236 22.10692408 7.29296875 18.79296875 C7.30845261 17.7585112 7.32393646 16.72405365 7.33988953 15.6582489 C7.34011612 14.6974794 7.34034271 13.7367099 7.34057617 12.74682617 C7.34723801 11.90077316 7.35389984 11.05472015 7.36076355 10.18302917 C6.91713476 7.4985712 6.12867181 6.64225153 4 5 C1.89667109 4.28552357 1.89667109 4.28552357 0 4 C0 2.68 0 1.36 0 0 Z " fill="#F8F9FA" transform="translate(330,518)"/>
<path d="M0 0 C8.58 0 17.16 0 26 0 C26 1.32 26 2.64 26 4 C24.02 4.66 22.04 5.32 20 6 C20 22.17 20 38.34 20 55 C21.98 55.66 23.96 56.32 26 57 C26 58.32 26 59.64 26 61 C17.42 61 8.84 61 0 61 C0.33 59.68 0.66 58.36 1 57 C3.5 55.8125 3.5 55.8125 6 55 C7.56637979 53.43362021 7.14269238 51.88796746 7.16113281 49.71142578 C7.17074036 48.8002298 7.1803479 47.88903381 7.19024658 46.95022583 C7.19449646 45.95860443 7.19874634 44.96698303 7.203125 43.9453125 C7.20882507 42.9328244 7.21452515 41.9203363 7.22039795 40.87716675 C7.22986417 38.73013357 7.23638834 36.58308576 7.24023438 34.43603516 C7.24993835 31.14590163 7.2809461 27.85639294 7.3125 24.56640625 C7.31902981 22.48437873 7.32428037 20.40234671 7.328125 18.3203125 C7.3404718 17.33273956 7.3528186 16.34516663 7.36553955 15.32766724 C7.36253845 14.41016693 7.35953735 13.49266663 7.35644531 12.54736328 C7.36009094 11.73985626 7.36373657 10.93234924 7.36749268 10.10037231 C6.90893467 7.47952404 6.07354201 6.61671368 4 5 C1.89667109 4.28552357 1.89667109 4.28552357 0 4 C0 2.68 0 1.36 0 0 Z " fill="#F7F8F9" transform="translate(175,518)"/>
<path d="M0 0 C4.33867849 -1.12571118 7.67552083 -1.26652341 12 0 C16.68774737 3.8588648 20.11423393 9.07293126 23.5859375 14.00341797 C25.40645759 16.57389678 27.35093335 19.03617737 29.3125 21.5 C30.199375 22.655 31.08625 23.81 32 25 C32 18.07 32 11.14 32 4 C30.02 3.34 28.04 2.68 26 2 C26 1.34 26 0.68 26 0 C31.28 0 36.56 0 42 0 C42 0.99 42 1.98 42 3 C41.01 3.33 40.02 3.66 39 4 C37.44504302 7.10991396 37.75923044 10.43344049 37.68359375 13.8515625 C37.66281265 14.62559418 37.64203156 15.39962585 37.62062073 16.19711304 C37.55516552 18.67298392 37.49625913 21.14896202 37.4375 23.625 C37.39431093 25.30209448 37.35069652 26.97917807 37.30664062 28.65625 C37.19948829 32.77072308 37.09820955 36.88530414 37 41 C33.57895672 40.43664217 32.20688212 39.50009178 30.08203125 36.7890625 C29.55375732 36.12583984 29.0254834 35.46261719 28.48120117 34.77929688 C27.93052979 34.06837891 27.3798584 33.35746094 26.8125 32.625 C25.65905271 31.16911351 24.50540575 29.71338519 23.3515625 28.2578125 C22.78598633 27.53754883 22.22041016 26.81728516 21.63769531 26.07519531 C19.35753365 23.18590281 17.02548935 20.34269816 14.6875 17.5 C13.470625 16.015 12.25375 14.53 11 13 C11 20.59 11 28.18 11 36 C12.65 36.66 14.3 37.32 16 38 C16 38.66 16 39.32 16 40 C10.72 40 5.44 40 0 40 C0 39.34 0 38.68 0 38 C1.32 37.34 2.64 36.68 4 36 C4.33 25.44 4.66 14.88 5 4 C3.35 3.67 1.7 3.34 0 3 C0 2.01 0 1.02 0 0 Z " fill="#F5F6F8" transform="translate(137,459)"/>
<path d="M0 0 C5.94 0 11.88 0 18 0 C17.67 0.99 17.34 1.98 17 3 C16.01 3.33 15.02 3.66 14 4 C13.88337739 8.04142215 13.8126065 12.08240865 13.75 16.125 C13.71648437 17.26710938 13.68296875 18.40921875 13.6484375 19.5859375 C13.54623081 28.09972797 13.54623081 28.09972797 18 35 C21.13871188 36.56935594 23.53855822 36.35201103 27 36 C30.97720711 32.97386416 32.31792758 30.85212667 33 26 C33.07747197 24.23447202 33.10799073 22.46641544 33.09765625 20.69921875 C33.09443359 19.72275391 33.09121094 18.74628906 33.08789062 17.74023438 C33.07951172 16.73283203 33.07113281 15.72542969 33.0625 14.6875 C33.05798828 13.66076172 33.05347656 12.63402344 33.04882812 11.57617188 C33.03708184 9.05072118 33.02065565 6.52539095 33 4 C31.68 3.34 30.36 2.68 29 2 C29 1.34 29 0.68 29 0 C33.95 0 38.9 0 44 0 C44 0.99 44 1.98 44 3 C42.68 3.33 41.36 3.66 40 4 C39.98541748 4.61931396 39.97083496 5.23862793 39.95581055 5.87670898 C39.88052583 8.73087773 39.78413686 11.58397749 39.6875 14.4375 C39.66494141 15.41138672 39.64238281 16.38527344 39.61914062 17.38867188 C39.0987593 31.53358245 39.0987593 31.53358245 34.54931641 36.62280273 C29.12324533 41.25904432 25.15929663 41.33884114 18.2109375 41.28515625 C12.91020809 40.81441021 10.72904072 38.907907 7.1875 35 C4.94087025 31.21620252 4.83848582 27.47760285 4.68359375 23.140625 C4.62075195 21.46806641 4.62075195 21.46806641 4.55664062 19.76171875 C4.51732422 18.60285156 4.47800781 17.44398438 4.4375 16.25 C4.39431641 15.07566406 4.35113281 13.90132813 4.30664062 12.69140625 C4.20065206 9.79438549 4.09858362 6.89728065 4 4 C2.68 3.34 1.36 2.68 0 2 C0 1.34 0 0.68 0 0 Z " fill="#F7F8F9" transform="translate(90,459)"/>
<path d="M0 0 C4.42699434 1.01415209 6.38079905 4.58901346 8.7734375 8.13671875 C11.03165768 14.43596452 10.75757911 20.20633161 8.2109375 26.38671875 C6.16713877 30.46711973 4.24796072 32.4901445 0.0234375 34.26171875 C-2.90471351 34.5279143 -4.46679899 33.86396368 -7.0390625 32.44921875 C-11.85165644 27.49912212 -13.1409192 22.70812128 -13.3515625 15.94921875 C-13.23365712 10.15613418 -11.68317557 6.76315567 -8.3515625 2.07421875 C-5.57903559 0.12595659 -3.37130599 -0.18172467 0 0 Z " fill="#052B4F" transform="translate(490.0390625,462.55078125)"/>
<path d="M0 0 C9.57 0 19.14 0 29 0 C29 3.3 29 6.6 29 10 C28.34 10 27.68 10 27 10 C26.38705078 8.78763672 26.38705078 8.78763672 25.76171875 7.55078125 C24.21776623 4.70992666 24.21776623 4.70992666 21.08203125 4.29296875 C20.00308594 4.25816406 18.92414063 4.22335937 17.8125 4.1875 C15.894375 4.125625 13.97625 4.06375 12 4 C12 8.62 12 13.24 12 18 C15.3 17.67 18.6 17.34 22 17 C22.33 15.68 22.66 14.36 23 13 C23.66 13 24.32 13 25 13 C25 17.29 25 21.58 25 26 C24.34 26 23.68 26 23 26 C22.67 25.01 22.34 24.02 22 23 C19.03 22.67 16.06 22.34 13 22 C13.33 26.29 13.66 30.58 14 35 C18.62 35 23.24 35 28 35 C28.33 33.35 28.66 31.7 29 30 C29.99 30 30.98 30 32 30 C31.67 33.3 31.34 36.6 31 40 C20.77 40 10.54 40 0 40 C0 39.34 0 38.68 0 38 C1.32 37.34 2.64 36.68 4 36 C4 25.44 4 14.88 4 4 C2.68 3.34 1.36 2.68 0 2 C0 1.34 0 0.68 0 0 Z " fill="#F2F4F6" transform="translate(245,459)"/>
<path d="M0 0 C0.66 -0.33 1.32 -0.66 2 -1 C2.33 3.29 2.66 7.58 3 12 C2.34 12 1.68 12 1 12 C0.4225 10.88625 -0.155 9.7725 -0.75 8.625 C-2.01929817 6.42813778 -2.84634808 5.11779981 -4.875 3.5625 C-7.69252986 2.81668327 -10.10031318 2.74785332 -13 3 C-15.18891761 4.82473909 -15.18891761 4.82473909 -15.5 7.375 C-15.23817062 10.22297998 -15.23817062 10.22297998 -12.625 12.0625 C-9.83266909 13.73125014 -6.9297999 14.77689885 -3.875 15.875 C-0.47335805 17.20384655 1.03823378 18.03823378 3.6875 20.6875 C5.4417417 25.1148719 5.31777254 28.45074703 4 33 C1.79470326 36.57410161 -0.14226209 38.44063318 -4 40 C-10.77876562 40.91997533 -16.95682081 40.71949004 -22.640625 36.64453125 C-24.35245346 34.57361234 -24.48108532 33.34974103 -24.5 30.6875 C-24.335 29.470625 -24.17 28.25375 -24 27 C-23.01 27 -22.02 27 -21 27 C-19.59886384 28.95309888 -18.26660533 30.95708818 -17 33 C-15.22290968 35.18429262 -15.22290968 35.18429262 -12.94140625 35.265625 C-11.76384766 35.25789063 -11.76384766 35.25789063 -10.5625 35.25 C-9.78003906 35.25515625 -8.99757813 35.2603125 -8.19140625 35.265625 C-5.70955893 35.13176831 -5.70955893 35.13176831 -3 33 C-2.33256123 30.58655333 -2.33256123 30.58655333 -3 28 C-5.90766305 24.80157065 -9.09724848 23.52677309 -13.0625 22.0625 C-18.1229797 20.15728964 -20.56966303 17.86067394 -23 13 C-23.43752262 9.14980098 -23.14486622 7.2736362 -21.3125 3.8125 C-15.16673597 -3.66207787 -8.46681781 -3.02386351 0 0 Z " fill="#F1F3F5" transform="translate(342,460)"/>
<path d="M0 0 C6.93 0 13.86 0 21 0 C21 0.99 21 1.98 21 3 C19.02 3 17.04 3 15 3 C17.0085765 7.92101242 19.29260594 12.42543762 22 17 C22.98558449 15.42065361 23.96322541 13.83634827 24.9375 12.25 C25.48277344 11.36828125 26.02804687 10.4865625 26.58984375 9.578125 C27.82715712 7.31600083 28.53590513 5.51433675 29 3 C27.68 3 26.36 3 25 3 C25 2.01 25 1.02 25 0 C30.28 0 35.56 0 41 0 C41 0.66 41 1.32 41 2 C40.11054688 2.56074219 39.22109375 3.12148438 38.3046875 3.69921875 C34.54090335 6.10109276 32.42140671 9.03211076 30.125 12.8125 C29.72933838 13.46033447 29.33367676 14.10816895 28.92602539 14.77563477 C25.00331798 21.80033231 25.09470698 28.12059781 26 36 C27.65 36.66 29.3 37.32 31 38 C31 38.66 31 39.32 31 40 C24.4 40 17.8 40 11 40 C11 39.34 11 38.68 11 38 C12.65 37.34 14.3 36.68 16 36 C17.56456112 27.80054078 16.32560681 22.68718644 11.90332031 15.79443359 C7.52463325 8.98486568 7.52463325 8.98486568 1.81152344 3.38916016 C1.2137207 2.9307373 0.61591797 2.47231445 0 2 C0 1.34 0 0.68 0 0 Z " fill="#F4F6F7" transform="translate(410,459)"/>
<path d="M0 0 C9.9 0 19.8 0 30 0 C30 3.3 30 6.6 30 10 C29.34 10 28.68 10 28 10 C27.60167969 9.19175781 27.20335937 8.38351562 26.79296875 7.55078125 C25.19875405 4.67583595 25.19875405 4.67583595 21.86328125 4.29296875 C20.69152344 4.25816406 19.51976562 4.22335937 18.3125 4.1875 C16.229375 4.125625 14.14625 4.06375 12 4 C12 8.62 12 13.24 12 18 C13.60875 17.9175 15.2175 17.835 16.875 17.75 C17.77992188 17.70359375 18.68484375 17.6571875 19.6171875 17.609375 C22.17110544 17.24388852 22.17110544 17.24388852 23.3203125 14.953125 C23.65675781 13.98632812 23.65675781 13.98632812 24 13 C24.66 13 25.32 13 26 13 C26 17.62 26 22.24 26 27 C25.01 26.67 24.02 26.34 23 26 C23 25.01 23 24.02 23 23 C19.7 22.67 16.4 22.34 13 22 C13.33 26.95 13.66 31.9 14 37 C14.99 37.33 15.98 37.66 17 38 C17 38.99 17 39.98 17 41 C11.39 41 5.78 41 0 41 C0 40.01 0 39.02 0 38 C2.475 37.505 2.475 37.505 5 37 C4.67 26.11 4.34 15.22 4 4 C2.68 3.67 1.36 3.34 0 3 C0 2.01 0 1.02 0 0 Z " fill="#E9EDF0" transform="translate(510,459)"/>
<path d="M0 0 C12.21 0 24.42 0 37 0 C37 3.96 37 7.92 37 12 C36.01 12 35.02 12 34 12 C33.34 10.02 32.68 8.04 32 6 C28.7 5.67 25.4 5.34 22 5 C22.33 15.56 22.66 26.12 23 37 C24.485 37.495 24.485 37.495 26 38 C26 38.66 26 39.32 26 40 C20.72 40 15.44 40 10 40 C10 39.34 10 38.68 10 38 C11.485 37.505 11.485 37.505 13 37 C13.33 26.44 13.66 15.88 14 5 C10.7 5.33 7.4 5.66 4 6 C3.34 7.65 2.68 9.3 2 11 C1.34 11 0.68 11 0 11 C0 7.37 0 3.74 0 0 Z " fill="#EFF1F3" transform="translate(370,459)"/>
<path d="M0 0 C6.27 0 12.54 0 19 0 C19 0.99 19 1.98 19 3 C17.35 3 15.7 3 14 3 C14.76699878 5.66782183 15.53848993 8.33421175 16.3125 11 C16.63250977 12.11568359 16.63250977 12.11568359 16.95898438 13.25390625 C18.41987153 18.26889199 20.11253398 23.12911996 22 28 C23.34146494 24.56561785 24.67175905 21.12701583 26 17.6875 C26.3815625 16.71103516 26.763125 15.73457031 27.15625 14.72851562 C27.5171875 13.79072266 27.878125 12.85292969 28.25 11.88671875 C28.75273437 10.59060669 28.75273437 10.59060669 29.265625 9.26831055 C30.15400692 6.92168026 30.15400692 6.92168026 30 4 C28.68 3.67 27.36 3.34 26 3 C26 2.01 26 1.02 26 0 C30.62 0 35.24 0 40 0 C40 0.99 40 1.98 40 3 C39.08432251 3.34635498 39.08432251 3.34635498 38.15014648 3.69970703 C35.3764163 5.37710989 34.83878374 6.83308149 33.59765625 9.8046875 C33.18467285 10.77583496 32.77168945 11.74698242 32.34619141 12.74755859 C31.92257324 13.77961426 31.49895508 14.81166992 31.0625 15.875 C30.40000244 17.43661865 30.40000244 17.43661865 29.72412109 19.02978516 C27.88376018 23.38288117 26.08072356 27.74704718 24.37890625 32.15625 C23.96511719 33.2184375 23.55132812 34.280625 23.125 35.375 C22.79757813 36.26960938 22.47015625 37.16421875 22.1328125 38.0859375 C21 40 21 40 18.92919922 40.61962891 C18.29256348 40.74515137 17.65592773 40.87067383 17 41 C16.75354736 40.30551758 16.50709473 39.61103516 16.25317383 38.89550781 C15.10961845 35.67914156 13.96108234 32.46457436 12.8125 29.25 C12.42513672 28.15816406 12.03777344 27.06632812 11.63867188 25.94140625 C9.63410566 20.34187418 7.57287041 14.76574037 5.38671875 9.234375 C4.80796997 7.76049316 4.80796997 7.76049316 4.2175293 6.25683594 C3.1552125 3.67130032 3.1552125 3.67130032 0 3 C0 2.01 0 1.02 0 0 Z " fill="#F4F6F7" transform="translate(204,459)"/>
<path d="M0 0 C5.61 0 11.22 0 17 0 C16 3 16 3 14 4 C14 14.89 14 25.78 14 37 C14.99 37.33 15.98 37.66 17 38 C17 38.66 17 39.32 17 40 C11.39 40 5.78 40 0 40 C0 39.34 0 38.68 0 38 C1.32 37.34 2.64 36.68 4 36 C4 25.44 4 14.88 4 4 C2.68 3.67 1.36 3.34 0 3 C0 2.01 0 1.02 0 0 Z " fill="#F2F3F5" transform="translate(183,459)"/>
<path d="M0 0 C5.61 0 11.22 0 17 0 C16.67 0.99 16.34 1.98 16 3 C15.01 3.33 14.02 3.66 13 4 C13 14.56 13 25.12 13 36 C14.32 36.66 15.64 37.32 17 38 C17 38.66 17 39.32 17 40 C11.39 40 5.78 40 0 40 C0 39.34 0 38.68 0 38 C1.32 37.34 2.64 36.68 4 36 C4 25.11 4 14.22 4 3 C2.68 3 1.36 3 0 3 C0 2.01 0 1.02 0 0 Z " fill="#FCFDFD" transform="translate(349,459)"/>
<path d="M0 0 C0.66 0 1.32 0 2 0 C3.17152378 3.45670732 4.33639077 6.91562122 5.5 10.375 C5.83386719 11.35984375 6.16773438 12.3446875 6.51171875 13.359375 C6.98544922 14.77089844 6.98544922 14.77089844 7.46875 16.2109375 C7.76201172 17.08024902 8.05527344 17.94956055 8.35742188 18.84521484 C9 21 9 21 9 23 C3.72 23 -1.56 23 -7 23 C-6.35566405 19.13398431 -5.86949609 16.23477641 -4.58984375 12.6953125 C-4.18862305 11.57382812 -4.18862305 11.57382812 -3.77929688 10.4296875 C-3.50150391 9.66914062 -3.22371094 8.90859375 -2.9375 8.125 C-2.65583984 7.34125 -2.37417969 6.5575 -2.08398438 5.75 C-1.39386218 3.83169424 -0.69755684 1.91561481 0 0 Z " fill="#0A3053" transform="translate(444,532)"/>
<path d="M0 0 C6 0 6 0 8.875 1.5625 C11 4 11 4 11.625 7.5 C11 11 11 11 8.875 13.4375 C6 15 6 15 0 15 C0 10.05 0 5.1 0 0 Z " fill="#042A4F" transform="translate(293,463)"/>
<path d="M0 0 C4.62 0 9.24 0 14 0 C14 0.99 14 1.98 14 3 C13.38415039 3.24024902 12.76830078 3.48049805 12.13378906 3.72802734 C9.48059837 5.30962042 8.99552492 6.5111877 7.859375 9.3515625 C7.51132813 10.20234375 7.16328125 11.053125 6.8046875 11.9296875 C6.45664063 12.81914062 6.10859375 13.70859375 5.75 14.625 C5.38648438 15.5221875 5.02296875 16.419375 4.6484375 17.34375 C3.75335241 19.55790786 2.87119583 21.77635825 2 24 C1.01 23.67 0.02 23.34 -1 23 C-0.18016639 18.25359489 1.43539002 14.00414693 3.16015625 9.5234375 C4.15789355 6.96883916 4.15789355 6.96883916 4 4 C2.68 3.67 1.36 3.34 0 3 C0 2.01 0 1.02 0 0 Z " fill="#EFF1F3" transform="translate(230,459)"/>
<path d="M0 0 C0.66 0.66 1.32 1.32 2 2 C1.34 3.65 0.68 5.3 0 7 C-0.99 6.67 -1.98 6.34 -3 6 C-2.625 3.5625 -2.625 3.5625 -2 1 C-1.34 0.67 -0.68 0.34 0 0 Z " fill="#DDE2E7" transform="translate(232,476)"/>
</svg>
